%TF.GenerationSoftware,KiCad,Pcbnew,(6.0.11)*%
%TF.CreationDate,2023-11-12T17:34:14-06:00*%
%TF.ProjectId,rx02-mega2560-pro,72783032-2d6d-4656-9761-323536302d70,rev?*%
%TF.SameCoordinates,Original*%
%TF.FileFunction,Legend,Top*%
%TF.FilePolarity,Positive*%
%FSLAX46Y46*%
G04 Gerber Fmt 4.6, Leading zero omitted, Abs format (unit mm)*
G04 Created by KiCad (PCBNEW (6.0.11)) date 2023-11-12 17:34:14*
%MOMM*%
%LPD*%
G01*
G04 APERTURE LIST*
%ADD10C,0.200000*%
%ADD11C,0.150000*%
%ADD12C,0.120000*%
%ADD13C,0.127000*%
G04 APERTURE END LIST*
D10*
X149289200Y-100038904D02*
X149022533Y-99657952D01*
X148832057Y-100038904D02*
X148832057Y-99238904D01*
X149136819Y-99238904D01*
X149213009Y-99277000D01*
X149251104Y-99315095D01*
X149289200Y-99391285D01*
X149289200Y-99505571D01*
X149251104Y-99581761D01*
X149213009Y-99619857D01*
X149136819Y-99657952D01*
X148832057Y-99657952D01*
X149555866Y-99238904D02*
X150089200Y-100038904D01*
X150089200Y-99238904D02*
X149555866Y-100038904D01*
X150546342Y-99238904D02*
X150622533Y-99238904D01*
X150698723Y-99277000D01*
X150736819Y-99315095D01*
X150774914Y-99391285D01*
X150813009Y-99543666D01*
X150813009Y-99734142D01*
X150774914Y-99886523D01*
X150736819Y-99962714D01*
X150698723Y-100000809D01*
X150622533Y-100038904D01*
X150546342Y-100038904D01*
X150470152Y-100000809D01*
X150432057Y-99962714D01*
X150393961Y-99886523D01*
X150355866Y-99734142D01*
X150355866Y-99543666D01*
X150393961Y-99391285D01*
X150432057Y-99315095D01*
X150470152Y-99277000D01*
X150546342Y-99238904D01*
X151117771Y-99315095D02*
X151155866Y-99277000D01*
X151232057Y-99238904D01*
X151422533Y-99238904D01*
X151498723Y-99277000D01*
X151536819Y-99315095D01*
X151574914Y-99391285D01*
X151574914Y-99467476D01*
X151536819Y-99581761D01*
X151079676Y-100038904D01*
X151574914Y-100038904D01*
X152527295Y-100038904D02*
X152527295Y-99238904D01*
X152793961Y-99810333D01*
X153060628Y-99238904D01*
X153060628Y-100038904D01*
X153746342Y-100000809D02*
X153670152Y-100038904D01*
X153517771Y-100038904D01*
X153441580Y-100000809D01*
X153403485Y-99924619D01*
X153403485Y-99619857D01*
X153441580Y-99543666D01*
X153517771Y-99505571D01*
X153670152Y-99505571D01*
X153746342Y-99543666D01*
X153784438Y-99619857D01*
X153784438Y-99696047D01*
X153403485Y-99772238D01*
X154470152Y-99505571D02*
X154470152Y-100153190D01*
X154432057Y-100229380D01*
X154393961Y-100267476D01*
X154317771Y-100305571D01*
X154203485Y-100305571D01*
X154127295Y-100267476D01*
X154470152Y-100000809D02*
X154393961Y-100038904D01*
X154241580Y-100038904D01*
X154165390Y-100000809D01*
X154127295Y-99962714D01*
X154089200Y-99886523D01*
X154089200Y-99657952D01*
X154127295Y-99581761D01*
X154165390Y-99543666D01*
X154241580Y-99505571D01*
X154393961Y-99505571D01*
X154470152Y-99543666D01*
X155193961Y-100038904D02*
X155193961Y-99619857D01*
X155155866Y-99543666D01*
X155079676Y-99505571D01*
X154927295Y-99505571D01*
X154851104Y-99543666D01*
X155193961Y-100000809D02*
X155117771Y-100038904D01*
X154927295Y-100038904D01*
X154851104Y-100000809D01*
X154813009Y-99924619D01*
X154813009Y-99848428D01*
X154851104Y-99772238D01*
X154927295Y-99734142D01*
X155117771Y-99734142D01*
X155193961Y-99696047D01*
X156184438Y-100038904D02*
X156184438Y-99238904D01*
X156489200Y-99238904D01*
X156565390Y-99277000D01*
X156603485Y-99315095D01*
X156641580Y-99391285D01*
X156641580Y-99505571D01*
X156603485Y-99581761D01*
X156565390Y-99619857D01*
X156489200Y-99657952D01*
X156184438Y-99657952D01*
X156984438Y-100038904D02*
X156984438Y-99505571D01*
X156984438Y-99657952D02*
X157022533Y-99581761D01*
X157060628Y-99543666D01*
X157136819Y-99505571D01*
X157213009Y-99505571D01*
X157593961Y-100038904D02*
X157517771Y-100000809D01*
X157479676Y-99962714D01*
X157441580Y-99886523D01*
X157441580Y-99657952D01*
X157479676Y-99581761D01*
X157517771Y-99543666D01*
X157593961Y-99505571D01*
X157708247Y-99505571D01*
X157784438Y-99543666D01*
X157822533Y-99581761D01*
X157860628Y-99657952D01*
X157860628Y-99886523D01*
X157822533Y-99962714D01*
X157784438Y-100000809D01*
X157708247Y-100038904D01*
X157593961Y-100038904D01*
X158736819Y-99505571D02*
X158927295Y-100038904D01*
X159117771Y-99505571D01*
X159841580Y-100038904D02*
X159384438Y-100038904D01*
X159613009Y-100038904D02*
X159613009Y-99238904D01*
X159536819Y-99353190D01*
X159460628Y-99429380D01*
X159384438Y-99467476D01*
X160184438Y-99962714D02*
X160222533Y-100000809D01*
X160184438Y-100038904D01*
X160146342Y-100000809D01*
X160184438Y-99962714D01*
X160184438Y-100038904D01*
X160527295Y-99315095D02*
X160565390Y-99277000D01*
X160641580Y-99238904D01*
X160832057Y-99238904D01*
X160908247Y-99277000D01*
X160946342Y-99315095D01*
X160984438Y-99391285D01*
X160984438Y-99467476D01*
X160946342Y-99581761D01*
X160489200Y-100038904D01*
X160984438Y-100038904D01*
X148279676Y-101326904D02*
X148279676Y-100526904D01*
X148584438Y-100526904D01*
X148660628Y-100565000D01*
X148698723Y-100603095D01*
X148736819Y-100679285D01*
X148736819Y-100793571D01*
X148698723Y-100869761D01*
X148660628Y-100907857D01*
X148584438Y-100945952D01*
X148279676Y-100945952D01*
X149536819Y-101250714D02*
X149498723Y-101288809D01*
X149384438Y-101326904D01*
X149308247Y-101326904D01*
X149193961Y-101288809D01*
X149117771Y-101212619D01*
X149079676Y-101136428D01*
X149041580Y-100984047D01*
X149041580Y-100869761D01*
X149079676Y-100717380D01*
X149117771Y-100641190D01*
X149193961Y-100565000D01*
X149308247Y-100526904D01*
X149384438Y-100526904D01*
X149498723Y-100565000D01*
X149536819Y-100603095D01*
X150146342Y-100907857D02*
X150260628Y-100945952D01*
X150298723Y-100984047D01*
X150336819Y-101060238D01*
X150336819Y-101174523D01*
X150298723Y-101250714D01*
X150260628Y-101288809D01*
X150184438Y-101326904D01*
X149879676Y-101326904D01*
X149879676Y-100526904D01*
X150146342Y-100526904D01*
X150222533Y-100565000D01*
X150260628Y-100603095D01*
X150298723Y-100679285D01*
X150298723Y-100755476D01*
X150260628Y-100831666D01*
X150222533Y-100869761D01*
X150146342Y-100907857D01*
X149879676Y-100907857D01*
X151289200Y-101326904D02*
X151289200Y-100526904D01*
X151289200Y-100831666D02*
X151365390Y-100793571D01*
X151517771Y-100793571D01*
X151593961Y-100831666D01*
X151632057Y-100869761D01*
X151670152Y-100945952D01*
X151670152Y-101174523D01*
X151632057Y-101250714D01*
X151593961Y-101288809D01*
X151517771Y-101326904D01*
X151365390Y-101326904D01*
X151289200Y-101288809D01*
X151936819Y-100793571D02*
X152127295Y-101326904D01*
X152317771Y-100793571D02*
X152127295Y-101326904D01*
X152051104Y-101517380D01*
X152013009Y-101555476D01*
X151936819Y-101593571D01*
X153689200Y-101250714D02*
X153651104Y-101288809D01*
X153536819Y-101326904D01*
X153460628Y-101326904D01*
X153346342Y-101288809D01*
X153270152Y-101212619D01*
X153232057Y-101136428D01*
X153193961Y-100984047D01*
X153193961Y-100869761D01*
X153232057Y-100717380D01*
X153270152Y-100641190D01*
X153346342Y-100565000D01*
X153460628Y-100526904D01*
X153536819Y-100526904D01*
X153651104Y-100565000D01*
X153689200Y-100603095D01*
X154032057Y-101326904D02*
X154032057Y-100526904D01*
X154374914Y-101326904D02*
X154374914Y-100907857D01*
X154336819Y-100831666D01*
X154260628Y-100793571D01*
X154146342Y-100793571D01*
X154070152Y-100831666D01*
X154032057Y-100869761D01*
X154755866Y-101326904D02*
X154755866Y-100793571D01*
X154755866Y-100945952D02*
X154793961Y-100869761D01*
X154832057Y-100831666D01*
X154908247Y-100793571D01*
X154984438Y-100793571D01*
X155251104Y-101326904D02*
X155251104Y-100793571D01*
X155251104Y-100526904D02*
X155213009Y-100565000D01*
X155251104Y-100603095D01*
X155289200Y-100565000D01*
X155251104Y-100526904D01*
X155251104Y-100603095D01*
X155593961Y-101288809D02*
X155670152Y-101326904D01*
X155822533Y-101326904D01*
X155898723Y-101288809D01*
X155936819Y-101212619D01*
X155936819Y-101174523D01*
X155898723Y-101098333D01*
X155822533Y-101060238D01*
X155708247Y-101060238D01*
X155632057Y-101022142D01*
X155593961Y-100945952D01*
X155593961Y-100907857D01*
X155632057Y-100831666D01*
X155708247Y-100793571D01*
X155822533Y-100793571D01*
X155898723Y-100831666D01*
X156774914Y-100526904D02*
X157232057Y-100526904D01*
X157003485Y-101326904D02*
X157003485Y-100526904D01*
X157803485Y-101288809D02*
X157727295Y-101326904D01*
X157574914Y-101326904D01*
X157498723Y-101288809D01*
X157460628Y-101212619D01*
X157460628Y-100907857D01*
X157498723Y-100831666D01*
X157574914Y-100793571D01*
X157727295Y-100793571D01*
X157803485Y-100831666D01*
X157841580Y-100907857D01*
X157841580Y-100984047D01*
X157460628Y-101060238D01*
X158184438Y-101326904D02*
X158184438Y-100793571D01*
X158184438Y-100945952D02*
X158222533Y-100869761D01*
X158260628Y-100831666D01*
X158336819Y-100793571D01*
X158413009Y-100793571D01*
X158641580Y-101288809D02*
X158717771Y-101326904D01*
X158870152Y-101326904D01*
X158946342Y-101288809D01*
X158984438Y-101212619D01*
X158984438Y-101174523D01*
X158946342Y-101098333D01*
X158870152Y-101060238D01*
X158755866Y-101060238D01*
X158679676Y-101022142D01*
X158641580Y-100945952D01*
X158641580Y-100907857D01*
X158679676Y-100831666D01*
X158755866Y-100793571D01*
X158870152Y-100793571D01*
X158946342Y-100831666D01*
X159213009Y-100793571D02*
X159517771Y-100793571D01*
X159327295Y-100526904D02*
X159327295Y-101212619D01*
X159365390Y-101288809D01*
X159441580Y-101326904D01*
X159517771Y-101326904D01*
X160089200Y-101288809D02*
X160013009Y-101326904D01*
X159860628Y-101326904D01*
X159784438Y-101288809D01*
X159746342Y-101212619D01*
X159746342Y-100907857D01*
X159784438Y-100831666D01*
X159860628Y-100793571D01*
X160013009Y-100793571D01*
X160089200Y-100831666D01*
X160127295Y-100907857D01*
X160127295Y-100984047D01*
X159746342Y-101060238D01*
X160774914Y-101288809D02*
X160698723Y-101326904D01*
X160546342Y-101326904D01*
X160470152Y-101288809D01*
X160432057Y-101212619D01*
X160432057Y-100907857D01*
X160470152Y-100831666D01*
X160546342Y-100793571D01*
X160698723Y-100793571D01*
X160774914Y-100831666D01*
X160813009Y-100907857D01*
X160813009Y-100984047D01*
X160432057Y-101060238D01*
X161498723Y-100793571D02*
X161498723Y-101441190D01*
X161460628Y-101517380D01*
X161422533Y-101555476D01*
X161346342Y-101593571D01*
X161232057Y-101593571D01*
X161155866Y-101555476D01*
X161498723Y-101288809D02*
X161422533Y-101326904D01*
X161270152Y-101326904D01*
X161193961Y-101288809D01*
X161155866Y-101250714D01*
X161117771Y-101174523D01*
X161117771Y-100945952D01*
X161155866Y-100869761D01*
X161193961Y-100831666D01*
X161270152Y-100793571D01*
X161422533Y-100793571D01*
X161498723Y-100831666D01*
X149670152Y-101814904D02*
X149822533Y-101814904D01*
X149898723Y-101853000D01*
X149974914Y-101929190D01*
X150013009Y-102081571D01*
X150013009Y-102348238D01*
X149974914Y-102500619D01*
X149898723Y-102576809D01*
X149822533Y-102614904D01*
X149670152Y-102614904D01*
X149593961Y-102576809D01*
X149517771Y-102500619D01*
X149479676Y-102348238D01*
X149479676Y-102081571D01*
X149517771Y-101929190D01*
X149593961Y-101853000D01*
X149670152Y-101814904D01*
X150355866Y-102614904D02*
X150355866Y-102081571D01*
X150355866Y-102233952D02*
X150393961Y-102157761D01*
X150432057Y-102119666D01*
X150508247Y-102081571D01*
X150584438Y-102081571D01*
X150851104Y-102614904D02*
X150851104Y-102081571D01*
X150851104Y-101814904D02*
X150813009Y-101853000D01*
X150851104Y-101891095D01*
X150889200Y-101853000D01*
X150851104Y-101814904D01*
X150851104Y-101891095D01*
X151574914Y-102081571D02*
X151574914Y-102729190D01*
X151536819Y-102805380D01*
X151498723Y-102843476D01*
X151422533Y-102881571D01*
X151308247Y-102881571D01*
X151232057Y-102843476D01*
X151574914Y-102576809D02*
X151498723Y-102614904D01*
X151346342Y-102614904D01*
X151270152Y-102576809D01*
X151232057Y-102538714D01*
X151193961Y-102462523D01*
X151193961Y-102233952D01*
X151232057Y-102157761D01*
X151270152Y-102119666D01*
X151346342Y-102081571D01*
X151498723Y-102081571D01*
X151574914Y-102119666D01*
X151955866Y-102614904D02*
X151955866Y-102081571D01*
X151955866Y-101814904D02*
X151917771Y-101853000D01*
X151955866Y-101891095D01*
X151993961Y-101853000D01*
X151955866Y-101814904D01*
X151955866Y-101891095D01*
X152336819Y-102081571D02*
X152336819Y-102614904D01*
X152336819Y-102157761D02*
X152374914Y-102119666D01*
X152451104Y-102081571D01*
X152565390Y-102081571D01*
X152641580Y-102119666D01*
X152679676Y-102195857D01*
X152679676Y-102614904D01*
X153403485Y-102614904D02*
X153403485Y-102195857D01*
X153365390Y-102119666D01*
X153289200Y-102081571D01*
X153136819Y-102081571D01*
X153060628Y-102119666D01*
X153403485Y-102576809D02*
X153327295Y-102614904D01*
X153136819Y-102614904D01*
X153060628Y-102576809D01*
X153022533Y-102500619D01*
X153022533Y-102424428D01*
X153060628Y-102348238D01*
X153136819Y-102310142D01*
X153327295Y-102310142D01*
X153403485Y-102272047D01*
X153898723Y-102614904D02*
X153822533Y-102576809D01*
X153784438Y-102500619D01*
X153784438Y-101814904D01*
X154813009Y-102614904D02*
X154813009Y-101814904D01*
X154813009Y-102119666D02*
X154889200Y-102081571D01*
X155041580Y-102081571D01*
X155117771Y-102119666D01*
X155155866Y-102157761D01*
X155193961Y-102233952D01*
X155193961Y-102462523D01*
X155155866Y-102538714D01*
X155117771Y-102576809D01*
X155041580Y-102614904D01*
X154889200Y-102614904D01*
X154813009Y-102576809D01*
X155460628Y-102081571D02*
X155651104Y-102614904D01*
X155841580Y-102081571D02*
X155651104Y-102614904D01*
X155574914Y-102805380D01*
X155536819Y-102843476D01*
X155460628Y-102881571D01*
X156717771Y-102386333D02*
X157098723Y-102386333D01*
X156641580Y-102614904D02*
X156908247Y-101814904D01*
X157174914Y-102614904D01*
X157441580Y-102614904D02*
X157441580Y-101814904D01*
X157898723Y-102614904D02*
X157555866Y-102157761D01*
X157898723Y-101814904D02*
X157441580Y-102272047D01*
X158584438Y-101814904D02*
X158432057Y-101814904D01*
X158355866Y-101853000D01*
X158317771Y-101891095D01*
X158241580Y-102005380D01*
X158203485Y-102157761D01*
X158203485Y-102462523D01*
X158241580Y-102538714D01*
X158279676Y-102576809D01*
X158355866Y-102614904D01*
X158508247Y-102614904D01*
X158584438Y-102576809D01*
X158622533Y-102538714D01*
X158660628Y-102462523D01*
X158660628Y-102272047D01*
X158622533Y-102195857D01*
X158584438Y-102157761D01*
X158508247Y-102119666D01*
X158355866Y-102119666D01*
X158279676Y-102157761D01*
X158241580Y-102195857D01*
X158203485Y-102272047D01*
X159003485Y-102614904D02*
X159003485Y-101814904D01*
X159193961Y-101814904D01*
X159308247Y-101853000D01*
X159384438Y-101929190D01*
X159422533Y-102005380D01*
X159460628Y-102157761D01*
X159460628Y-102272047D01*
X159422533Y-102424428D01*
X159384438Y-102500619D01*
X159308247Y-102576809D01*
X159193961Y-102614904D01*
X159003485Y-102614904D01*
X159803485Y-102614904D02*
X159803485Y-101814904D01*
X160260628Y-102614904D01*
X160260628Y-101814904D01*
D11*
X123642933Y-70575514D02*
X123642933Y-71385038D01*
X123595314Y-71480276D01*
X123547695Y-71527895D01*
X123452457Y-71575514D01*
X123309599Y-71575514D01*
X123214361Y-71527895D01*
X123642933Y-71194561D02*
X123547695Y-71242180D01*
X123357219Y-71242180D01*
X123261980Y-71194561D01*
X123214361Y-71146942D01*
X123166742Y-71051704D01*
X123166742Y-70765990D01*
X123214361Y-70670752D01*
X123261980Y-70623133D01*
X123357219Y-70575514D01*
X123547695Y-70575514D01*
X123642933Y-70623133D01*
X124119123Y-71242180D02*
X124119123Y-70575514D01*
X124119123Y-70242180D02*
X124071504Y-70289800D01*
X124119123Y-70337419D01*
X124166742Y-70289800D01*
X124119123Y-70242180D01*
X124119123Y-70337419D01*
X124452457Y-70575514D02*
X124833409Y-70575514D01*
X124595314Y-70242180D02*
X124595314Y-71099323D01*
X124642933Y-71194561D01*
X124738171Y-71242180D01*
X124833409Y-71242180D01*
X125166742Y-71242180D02*
X125166742Y-70242180D01*
X125595314Y-71242180D02*
X125595314Y-70718371D01*
X125547695Y-70623133D01*
X125452457Y-70575514D01*
X125309599Y-70575514D01*
X125214361Y-70623133D01*
X125166742Y-70670752D01*
X126500076Y-70575514D02*
X126500076Y-71242180D01*
X126071504Y-70575514D02*
X126071504Y-71099323D01*
X126119123Y-71194561D01*
X126214361Y-71242180D01*
X126357219Y-71242180D01*
X126452457Y-71194561D01*
X126500076Y-71146942D01*
X126976266Y-71242180D02*
X126976266Y-70242180D01*
X126976266Y-70623133D02*
X127071504Y-70575514D01*
X127261980Y-70575514D01*
X127357219Y-70623133D01*
X127404838Y-70670752D01*
X127452457Y-70765990D01*
X127452457Y-71051704D01*
X127404838Y-71146942D01*
X127357219Y-71194561D01*
X127261980Y-71242180D01*
X127071504Y-71242180D01*
X126976266Y-71194561D01*
X127881028Y-71146942D02*
X127928647Y-71194561D01*
X127881028Y-71242180D01*
X127833409Y-71194561D01*
X127881028Y-71146942D01*
X127881028Y-71242180D01*
X128785790Y-71194561D02*
X128690552Y-71242180D01*
X128500076Y-71242180D01*
X128404838Y-71194561D01*
X128357219Y-71146942D01*
X128309599Y-71051704D01*
X128309599Y-70765990D01*
X128357219Y-70670752D01*
X128404838Y-70623133D01*
X128500076Y-70575514D01*
X128690552Y-70575514D01*
X128785790Y-70623133D01*
X129357219Y-71242180D02*
X129261980Y-71194561D01*
X129214361Y-71146942D01*
X129166742Y-71051704D01*
X129166742Y-70765990D01*
X129214361Y-70670752D01*
X129261980Y-70623133D01*
X129357219Y-70575514D01*
X129500076Y-70575514D01*
X129595314Y-70623133D01*
X129642933Y-70670752D01*
X129690552Y-70765990D01*
X129690552Y-71051704D01*
X129642933Y-71146942D01*
X129595314Y-71194561D01*
X129500076Y-71242180D01*
X129357219Y-71242180D01*
X130119123Y-71242180D02*
X130119123Y-70575514D01*
X130119123Y-70670752D02*
X130166742Y-70623133D01*
X130261980Y-70575514D01*
X130404838Y-70575514D01*
X130500076Y-70623133D01*
X130547695Y-70718371D01*
X130547695Y-71242180D01*
X130547695Y-70718371D02*
X130595314Y-70623133D01*
X130690552Y-70575514D01*
X130833409Y-70575514D01*
X130928647Y-70623133D01*
X130976266Y-70718371D01*
X130976266Y-71242180D01*
X132166742Y-70194561D02*
X131309599Y-71480276D01*
X132928647Y-71242180D02*
X132928647Y-70242180D01*
X132928647Y-71194561D02*
X132833409Y-71242180D01*
X132642933Y-71242180D01*
X132547695Y-71194561D01*
X132500076Y-71146942D01*
X132452457Y-71051704D01*
X132452457Y-70765990D01*
X132500076Y-70670752D01*
X132547695Y-70623133D01*
X132642933Y-70575514D01*
X132833409Y-70575514D01*
X132928647Y-70623133D01*
X133404838Y-70575514D02*
X133404838Y-71432657D01*
X133357219Y-71527895D01*
X133261980Y-71575514D01*
X133214361Y-71575514D01*
X133404838Y-70242180D02*
X133357219Y-70289800D01*
X133404838Y-70337419D01*
X133452457Y-70289800D01*
X133404838Y-70242180D01*
X133404838Y-70337419D01*
X133738171Y-70575514D02*
X134119123Y-70575514D01*
X133881028Y-70242180D02*
X133881028Y-71099323D01*
X133928647Y-71194561D01*
X134023885Y-71242180D01*
X134119123Y-71242180D01*
X134833409Y-71194561D02*
X134738171Y-71242180D01*
X134547695Y-71242180D01*
X134452457Y-71194561D01*
X134404838Y-71099323D01*
X134404838Y-70718371D01*
X134452457Y-70623133D01*
X134547695Y-70575514D01*
X134738171Y-70575514D01*
X134833409Y-70623133D01*
X134881028Y-70718371D01*
X134881028Y-70813609D01*
X134404838Y-70908847D01*
X135309600Y-71242180D02*
X135309600Y-70575514D01*
X135309600Y-70765990D02*
X135357219Y-70670752D01*
X135404838Y-70623133D01*
X135500076Y-70575514D01*
X135595314Y-70575514D01*
X135881028Y-71194561D02*
X135976266Y-71242180D01*
X136166742Y-71242180D01*
X136261980Y-71194561D01*
X136309600Y-71099323D01*
X136309600Y-71051704D01*
X136261980Y-70956466D01*
X136166742Y-70908847D01*
X136023885Y-70908847D01*
X135928647Y-70861228D01*
X135881028Y-70765990D01*
X135881028Y-70718371D01*
X135928647Y-70623133D01*
X136023885Y-70575514D01*
X136166742Y-70575514D01*
X136261980Y-70623133D01*
X136595314Y-70575514D02*
X136976266Y-70575514D01*
X136738171Y-70242180D02*
X136738171Y-71099323D01*
X136785790Y-71194561D01*
X136881028Y-71242180D01*
X136976266Y-71242180D01*
X137690552Y-71194561D02*
X137595314Y-71242180D01*
X137404838Y-71242180D01*
X137309600Y-71194561D01*
X137261980Y-71099323D01*
X137261980Y-70718371D01*
X137309600Y-70623133D01*
X137404838Y-70575514D01*
X137595314Y-70575514D01*
X137690552Y-70623133D01*
X137738171Y-70718371D01*
X137738171Y-70813609D01*
X137261980Y-70908847D01*
X138547695Y-71194561D02*
X138452457Y-71242180D01*
X138261980Y-71242180D01*
X138166742Y-71194561D01*
X138119123Y-71099323D01*
X138119123Y-70718371D01*
X138166742Y-70623133D01*
X138261980Y-70575514D01*
X138452457Y-70575514D01*
X138547695Y-70623133D01*
X138595314Y-70718371D01*
X138595314Y-70813609D01*
X138119123Y-70908847D01*
X139452457Y-70575514D02*
X139452457Y-71385038D01*
X139404838Y-71480276D01*
X139357219Y-71527895D01*
X139261980Y-71575514D01*
X139119123Y-71575514D01*
X139023885Y-71527895D01*
X139452457Y-71194561D02*
X139357219Y-71242180D01*
X139166742Y-71242180D01*
X139071504Y-71194561D01*
X139023885Y-71146942D01*
X138976266Y-71051704D01*
X138976266Y-70765990D01*
X139023885Y-70670752D01*
X139071504Y-70623133D01*
X139166742Y-70575514D01*
X139357219Y-70575514D01*
X139452457Y-70623133D01*
X140357219Y-71194561D02*
X140261980Y-71242180D01*
X140071504Y-71242180D01*
X139976266Y-71194561D01*
X139928647Y-71146942D01*
X139881028Y-71051704D01*
X139881028Y-70765990D01*
X139928647Y-70670752D01*
X139976266Y-70623133D01*
X140071504Y-70575514D01*
X140261980Y-70575514D01*
X140357219Y-70623133D01*
X141500076Y-70194561D02*
X140642933Y-71480276D01*
X141833409Y-71242180D02*
X141833409Y-70575514D01*
X141833409Y-70765990D02*
X141881028Y-70670752D01*
X141928647Y-70623133D01*
X142023885Y-70575514D01*
X142119123Y-70575514D01*
X142357219Y-71242180D02*
X142881028Y-70575514D01*
X142357219Y-70575514D02*
X142881028Y-71242180D01*
X143452457Y-70242180D02*
X143547695Y-70242180D01*
X143642933Y-70289800D01*
X143690552Y-70337419D01*
X143738171Y-70432657D01*
X143785790Y-70623133D01*
X143785790Y-70861228D01*
X143738171Y-71051704D01*
X143690552Y-71146942D01*
X143642933Y-71194561D01*
X143547695Y-71242180D01*
X143452457Y-71242180D01*
X143357219Y-71194561D01*
X143309600Y-71146942D01*
X143261980Y-71051704D01*
X143214361Y-70861228D01*
X143214361Y-70623133D01*
X143261980Y-70432657D01*
X143309600Y-70337419D01*
X143357219Y-70289800D01*
X143452457Y-70242180D01*
X144166742Y-70337419D02*
X144214361Y-70289800D01*
X144309600Y-70242180D01*
X144547695Y-70242180D01*
X144642933Y-70289800D01*
X144690552Y-70337419D01*
X144738171Y-70432657D01*
X144738171Y-70527895D01*
X144690552Y-70670752D01*
X144119123Y-71242180D01*
X144738171Y-71242180D01*
X145166742Y-70861228D02*
X145928647Y-70861228D01*
X146404838Y-71242180D02*
X146404838Y-70575514D01*
X146404838Y-70670752D02*
X146452457Y-70623133D01*
X146547695Y-70575514D01*
X146690552Y-70575514D01*
X146785790Y-70623133D01*
X146833409Y-70718371D01*
X146833409Y-71242180D01*
X146833409Y-70718371D02*
X146881028Y-70623133D01*
X146976266Y-70575514D01*
X147119123Y-70575514D01*
X147214361Y-70623133D01*
X147261980Y-70718371D01*
X147261980Y-71242180D01*
X148119123Y-71194561D02*
X148023885Y-71242180D01*
X147833409Y-71242180D01*
X147738171Y-71194561D01*
X147690552Y-71099323D01*
X147690552Y-70718371D01*
X147738171Y-70623133D01*
X147833409Y-70575514D01*
X148023885Y-70575514D01*
X148119123Y-70623133D01*
X148166742Y-70718371D01*
X148166742Y-70813609D01*
X147690552Y-70908847D01*
X149023885Y-70575514D02*
X149023885Y-71385038D01*
X148976266Y-71480276D01*
X148928647Y-71527895D01*
X148833409Y-71575514D01*
X148690552Y-71575514D01*
X148595314Y-71527895D01*
X149023885Y-71194561D02*
X148928647Y-71242180D01*
X148738171Y-71242180D01*
X148642933Y-71194561D01*
X148595314Y-71146942D01*
X148547695Y-71051704D01*
X148547695Y-70765990D01*
X148595314Y-70670752D01*
X148642933Y-70623133D01*
X148738171Y-70575514D01*
X148928647Y-70575514D01*
X149023885Y-70623133D01*
X149928647Y-71242180D02*
X149928647Y-70718371D01*
X149881028Y-70623133D01*
X149785790Y-70575514D01*
X149595314Y-70575514D01*
X149500076Y-70623133D01*
X149928647Y-71194561D02*
X149833409Y-71242180D01*
X149595314Y-71242180D01*
X149500076Y-71194561D01*
X149452457Y-71099323D01*
X149452457Y-71004085D01*
X149500076Y-70908847D01*
X149595314Y-70861228D01*
X149833409Y-70861228D01*
X149928647Y-70813609D01*
X150357219Y-70337419D02*
X150404838Y-70289800D01*
X150500076Y-70242180D01*
X150738171Y-70242180D01*
X150833409Y-70289800D01*
X150881028Y-70337419D01*
X150928647Y-70432657D01*
X150928647Y-70527895D01*
X150881028Y-70670752D01*
X150309599Y-71242180D01*
X150928647Y-71242180D01*
X151833409Y-70242180D02*
X151357219Y-70242180D01*
X151309599Y-70718371D01*
X151357219Y-70670752D01*
X151452457Y-70623133D01*
X151690552Y-70623133D01*
X151785790Y-70670752D01*
X151833409Y-70718371D01*
X151881028Y-70813609D01*
X151881028Y-71051704D01*
X151833409Y-71146942D01*
X151785790Y-71194561D01*
X151690552Y-71242180D01*
X151452457Y-71242180D01*
X151357219Y-71194561D01*
X151309599Y-71146942D01*
X152738171Y-70242180D02*
X152547695Y-70242180D01*
X152452457Y-70289800D01*
X152404838Y-70337419D01*
X152309599Y-70480276D01*
X152261980Y-70670752D01*
X152261980Y-71051704D01*
X152309599Y-71146942D01*
X152357219Y-71194561D01*
X152452457Y-71242180D01*
X152642933Y-71242180D01*
X152738171Y-71194561D01*
X152785790Y-71146942D01*
X152833409Y-71051704D01*
X152833409Y-70813609D01*
X152785790Y-70718371D01*
X152738171Y-70670752D01*
X152642933Y-70623133D01*
X152452457Y-70623133D01*
X152357219Y-70670752D01*
X152309599Y-70718371D01*
X152261980Y-70813609D01*
X153452457Y-70242180D02*
X153547695Y-70242180D01*
X153642933Y-70289800D01*
X153690552Y-70337419D01*
X153738171Y-70432657D01*
X153785790Y-70623133D01*
X153785790Y-70861228D01*
X153738171Y-71051704D01*
X153690552Y-71146942D01*
X153642933Y-71194561D01*
X153547695Y-71242180D01*
X153452457Y-71242180D01*
X153357219Y-71194561D01*
X153309599Y-71146942D01*
X153261980Y-71051704D01*
X153214361Y-70861228D01*
X153214361Y-70623133D01*
X153261980Y-70432657D01*
X153309599Y-70337419D01*
X153357219Y-70289800D01*
X153452457Y-70242180D01*
X154214361Y-70861228D02*
X154976266Y-70861228D01*
X155452457Y-70575514D02*
X155452457Y-71575514D01*
X155452457Y-70623133D02*
X155547695Y-70575514D01*
X155738171Y-70575514D01*
X155833409Y-70623133D01*
X155881028Y-70670752D01*
X155928647Y-70765990D01*
X155928647Y-71051704D01*
X155881028Y-71146942D01*
X155833409Y-71194561D01*
X155738171Y-71242180D01*
X155547695Y-71242180D01*
X155452457Y-71194561D01*
X156357219Y-71242180D02*
X156357219Y-70575514D01*
X156357219Y-70765990D02*
X156404838Y-70670752D01*
X156452457Y-70623133D01*
X156547695Y-70575514D01*
X156642933Y-70575514D01*
X157119123Y-71242180D02*
X157023885Y-71194561D01*
X156976266Y-71146942D01*
X156928647Y-71051704D01*
X156928647Y-70765990D01*
X156976266Y-70670752D01*
X157023885Y-70623133D01*
X157119123Y-70575514D01*
X157261980Y-70575514D01*
X157357219Y-70623133D01*
X157404838Y-70670752D01*
X157452457Y-70765990D01*
X157452457Y-71051704D01*
X157404838Y-71146942D01*
X157357219Y-71194561D01*
X157261980Y-71242180D01*
X157119123Y-71242180D01*
%TO.C,C4*%
X116787142Y-75858666D02*
X116834761Y-75906285D01*
X116882380Y-76049142D01*
X116882380Y-76144380D01*
X116834761Y-76287238D01*
X116739523Y-76382476D01*
X116644285Y-76430095D01*
X116453809Y-76477714D01*
X116310952Y-76477714D01*
X116120476Y-76430095D01*
X116025238Y-76382476D01*
X115930000Y-76287238D01*
X115882380Y-76144380D01*
X115882380Y-76049142D01*
X115930000Y-75906285D01*
X115977619Y-75858666D01*
X116215714Y-75001523D02*
X116882380Y-75001523D01*
X115834761Y-75239619D02*
X116549047Y-75477714D01*
X116549047Y-74858666D01*
%TO.C,R11*%
X115181142Y-91892380D02*
X114847809Y-91416190D01*
X114609714Y-91892380D02*
X114609714Y-90892380D01*
X114990666Y-90892380D01*
X115085904Y-90940000D01*
X115133523Y-90987619D01*
X115181142Y-91082857D01*
X115181142Y-91225714D01*
X115133523Y-91320952D01*
X115085904Y-91368571D01*
X114990666Y-91416190D01*
X114609714Y-91416190D01*
X116133523Y-91892380D02*
X115562095Y-91892380D01*
X115847809Y-91892380D02*
X115847809Y-90892380D01*
X115752571Y-91035238D01*
X115657333Y-91130476D01*
X115562095Y-91178095D01*
X117085904Y-91892380D02*
X116514476Y-91892380D01*
X116800190Y-91892380D02*
X116800190Y-90892380D01*
X116704952Y-91035238D01*
X116609714Y-91130476D01*
X116514476Y-91178095D01*
%TO.C,R13*%
X115181142Y-94423860D02*
X114847809Y-93947670D01*
X114609714Y-94423860D02*
X114609714Y-93423860D01*
X114990666Y-93423860D01*
X115085904Y-93471480D01*
X115133523Y-93519099D01*
X115181142Y-93614337D01*
X115181142Y-93757194D01*
X115133523Y-93852432D01*
X115085904Y-93900051D01*
X114990666Y-93947670D01*
X114609714Y-93947670D01*
X116133523Y-94423860D02*
X115562095Y-94423860D01*
X115847809Y-94423860D02*
X115847809Y-93423860D01*
X115752571Y-93566718D01*
X115657333Y-93661956D01*
X115562095Y-93709575D01*
X116466857Y-93423860D02*
X117085904Y-93423860D01*
X116752571Y-93804813D01*
X116895428Y-93804813D01*
X116990666Y-93852432D01*
X117038285Y-93900051D01*
X117085904Y-93995289D01*
X117085904Y-94233384D01*
X117038285Y-94328622D01*
X116990666Y-94376241D01*
X116895428Y-94423860D01*
X116609714Y-94423860D01*
X116514476Y-94376241D01*
X116466857Y-94328622D01*
%TO.C,R28*%
X144721342Y-83158380D02*
X144388009Y-82682190D01*
X144149914Y-83158380D02*
X144149914Y-82158380D01*
X144530866Y-82158380D01*
X144626104Y-82206000D01*
X144673723Y-82253619D01*
X144721342Y-82348857D01*
X144721342Y-82491714D01*
X144673723Y-82586952D01*
X144626104Y-82634571D01*
X144530866Y-82682190D01*
X144149914Y-82682190D01*
X145102295Y-82253619D02*
X145149914Y-82206000D01*
X145245152Y-82158380D01*
X145483247Y-82158380D01*
X145578485Y-82206000D01*
X145626104Y-82253619D01*
X145673723Y-82348857D01*
X145673723Y-82444095D01*
X145626104Y-82586952D01*
X145054676Y-83158380D01*
X145673723Y-83158380D01*
X146245152Y-82586952D02*
X146149914Y-82539333D01*
X146102295Y-82491714D01*
X146054676Y-82396476D01*
X146054676Y-82348857D01*
X146102295Y-82253619D01*
X146149914Y-82206000D01*
X146245152Y-82158380D01*
X146435628Y-82158380D01*
X146530866Y-82206000D01*
X146578485Y-82253619D01*
X146626104Y-82348857D01*
X146626104Y-82396476D01*
X146578485Y-82491714D01*
X146530866Y-82539333D01*
X146435628Y-82586952D01*
X146245152Y-82586952D01*
X146149914Y-82634571D01*
X146102295Y-82682190D01*
X146054676Y-82777428D01*
X146054676Y-82967904D01*
X146102295Y-83063142D01*
X146149914Y-83110761D01*
X146245152Y-83158380D01*
X146435628Y-83158380D01*
X146530866Y-83110761D01*
X146578485Y-83063142D01*
X146626104Y-82967904D01*
X146626104Y-82777428D01*
X146578485Y-82682190D01*
X146530866Y-82634571D01*
X146435628Y-82586952D01*
%TO.C,R21*%
X115181142Y-104592380D02*
X114847809Y-104116190D01*
X114609714Y-104592380D02*
X114609714Y-103592380D01*
X114990666Y-103592380D01*
X115085904Y-103640000D01*
X115133523Y-103687619D01*
X115181142Y-103782857D01*
X115181142Y-103925714D01*
X115133523Y-104020952D01*
X115085904Y-104068571D01*
X114990666Y-104116190D01*
X114609714Y-104116190D01*
X115562095Y-103687619D02*
X115609714Y-103640000D01*
X115704952Y-103592380D01*
X115943047Y-103592380D01*
X116038285Y-103640000D01*
X116085904Y-103687619D01*
X116133523Y-103782857D01*
X116133523Y-103878095D01*
X116085904Y-104020952D01*
X115514476Y-104592380D01*
X116133523Y-104592380D01*
X117085904Y-104592380D02*
X116514476Y-104592380D01*
X116800190Y-104592380D02*
X116800190Y-103592380D01*
X116704952Y-103735238D01*
X116609714Y-103830476D01*
X116514476Y-103878095D01*
%TO.C,R6*%
X116133523Y-84272380D02*
X115800190Y-83796190D01*
X115562094Y-84272380D02*
X115562094Y-83272380D01*
X115943047Y-83272380D01*
X116038285Y-83320000D01*
X116085904Y-83367619D01*
X116133523Y-83462857D01*
X116133523Y-83605714D01*
X116085904Y-83700952D01*
X116038285Y-83748571D01*
X115943047Y-83796190D01*
X115562094Y-83796190D01*
X116990666Y-83272380D02*
X116800190Y-83272380D01*
X116704951Y-83320000D01*
X116657332Y-83367619D01*
X116562094Y-83510476D01*
X116514475Y-83700952D01*
X116514475Y-84081904D01*
X116562094Y-84177142D01*
X116609713Y-84224761D01*
X116704951Y-84272380D01*
X116895428Y-84272380D01*
X116990666Y-84224761D01*
X117038285Y-84177142D01*
X117085904Y-84081904D01*
X117085904Y-83843809D01*
X117038285Y-83748571D01*
X116990666Y-83700952D01*
X116895428Y-83653333D01*
X116704951Y-83653333D01*
X116609713Y-83700952D01*
X116562094Y-83748571D01*
X116514475Y-83843809D01*
%TO.C,R17*%
X115181142Y-99512380D02*
X114847809Y-99036190D01*
X114609714Y-99512380D02*
X114609714Y-98512380D01*
X114990666Y-98512380D01*
X115085904Y-98560000D01*
X115133523Y-98607619D01*
X115181142Y-98702857D01*
X115181142Y-98845714D01*
X115133523Y-98940952D01*
X115085904Y-98988571D01*
X114990666Y-99036190D01*
X114609714Y-99036190D01*
X116133523Y-99512380D02*
X115562095Y-99512380D01*
X115847809Y-99512380D02*
X115847809Y-98512380D01*
X115752571Y-98655238D01*
X115657333Y-98750476D01*
X115562095Y-98798095D01*
X116466857Y-98512380D02*
X117133523Y-98512380D01*
X116704952Y-99512380D01*
%TO.C,Q1*%
X133254761Y-84367619D02*
X133159523Y-84320000D01*
X133064285Y-84224761D01*
X132921428Y-84081904D01*
X132826190Y-84034285D01*
X132730952Y-84034285D01*
X132778571Y-84272380D02*
X132683333Y-84224761D01*
X132588095Y-84129523D01*
X132540476Y-83939047D01*
X132540476Y-83605714D01*
X132588095Y-83415238D01*
X132683333Y-83320000D01*
X132778571Y-83272380D01*
X132969047Y-83272380D01*
X133064285Y-83320000D01*
X133159523Y-83415238D01*
X133207142Y-83605714D01*
X133207142Y-83939047D01*
X133159523Y-84129523D01*
X133064285Y-84224761D01*
X132969047Y-84272380D01*
X132778571Y-84272380D01*
X134159523Y-84272380D02*
X133588095Y-84272380D01*
X133873809Y-84272380D02*
X133873809Y-83272380D01*
X133778571Y-83415238D01*
X133683333Y-83510476D01*
X133588095Y-83558095D01*
%TO.C,Q5*%
X133254761Y-91987619D02*
X133159523Y-91940000D01*
X133064285Y-91844761D01*
X132921428Y-91701904D01*
X132826190Y-91654285D01*
X132730952Y-91654285D01*
X132778571Y-91892380D02*
X132683333Y-91844761D01*
X132588095Y-91749523D01*
X132540476Y-91559047D01*
X132540476Y-91225714D01*
X132588095Y-91035238D01*
X132683333Y-90940000D01*
X132778571Y-90892380D01*
X132969047Y-90892380D01*
X133064285Y-90940000D01*
X133159523Y-91035238D01*
X133207142Y-91225714D01*
X133207142Y-91559047D01*
X133159523Y-91749523D01*
X133064285Y-91844761D01*
X132969047Y-91892380D01*
X132778571Y-91892380D01*
X134111904Y-90892380D02*
X133635714Y-90892380D01*
X133588095Y-91368571D01*
X133635714Y-91320952D01*
X133730952Y-91273333D01*
X133969047Y-91273333D01*
X134064285Y-91320952D01*
X134111904Y-91368571D01*
X134159523Y-91463809D01*
X134159523Y-91701904D01*
X134111904Y-91797142D01*
X134064285Y-91844761D01*
X133969047Y-91892380D01*
X133730952Y-91892380D01*
X133635714Y-91844761D01*
X133588095Y-91797142D01*
%TO.C,R5*%
X126992142Y-81732380D02*
X126658809Y-81256190D01*
X126420713Y-81732380D02*
X126420713Y-80732380D01*
X126801666Y-80732380D01*
X126896904Y-80780000D01*
X126944523Y-80827619D01*
X126992142Y-80922857D01*
X126992142Y-81065714D01*
X126944523Y-81160952D01*
X126896904Y-81208571D01*
X126801666Y-81256190D01*
X126420713Y-81256190D01*
X127896904Y-80732380D02*
X127420713Y-80732380D01*
X127373094Y-81208571D01*
X127420713Y-81160952D01*
X127515951Y-81113333D01*
X127754047Y-81113333D01*
X127849285Y-81160952D01*
X127896904Y-81208571D01*
X127944523Y-81303809D01*
X127944523Y-81541904D01*
X127896904Y-81637142D01*
X127849285Y-81684761D01*
X127754047Y-81732380D01*
X127515951Y-81732380D01*
X127420713Y-81684761D01*
X127373094Y-81637142D01*
%TO.C,R15*%
X115181142Y-96963860D02*
X114847809Y-96487670D01*
X114609714Y-96963860D02*
X114609714Y-95963860D01*
X114990666Y-95963860D01*
X115085904Y-96011480D01*
X115133523Y-96059099D01*
X115181142Y-96154337D01*
X115181142Y-96297194D01*
X115133523Y-96392432D01*
X115085904Y-96440051D01*
X114990666Y-96487670D01*
X114609714Y-96487670D01*
X116133523Y-96963860D02*
X115562095Y-96963860D01*
X115847809Y-96963860D02*
X115847809Y-95963860D01*
X115752571Y-96106718D01*
X115657333Y-96201956D01*
X115562095Y-96249575D01*
X117038285Y-95963860D02*
X116562095Y-95963860D01*
X116514476Y-96440051D01*
X116562095Y-96392432D01*
X116657333Y-96344813D01*
X116895428Y-96344813D01*
X116990666Y-96392432D01*
X117038285Y-96440051D01*
X117085904Y-96535289D01*
X117085904Y-96773384D01*
X117038285Y-96868622D01*
X116990666Y-96916241D01*
X116895428Y-96963860D01*
X116657333Y-96963860D01*
X116562095Y-96916241D01*
X116514476Y-96868622D01*
%TO.C,U2*%
X138176095Y-87412580D02*
X138176095Y-88222104D01*
X138223714Y-88317342D01*
X138271333Y-88364961D01*
X138366571Y-88412580D01*
X138557047Y-88412580D01*
X138652285Y-88364961D01*
X138699904Y-88317342D01*
X138747523Y-88222104D01*
X138747523Y-87412580D01*
X139176095Y-87507819D02*
X139223714Y-87460200D01*
X139318952Y-87412580D01*
X139557047Y-87412580D01*
X139652285Y-87460200D01*
X139699904Y-87507819D01*
X139747523Y-87603057D01*
X139747523Y-87698295D01*
X139699904Y-87841152D01*
X139128476Y-88412580D01*
X139747523Y-88412580D01*
X143267180Y-95678095D02*
X143267180Y-95011428D01*
X144267180Y-95440000D01*
X143600514Y-94201904D02*
X144267180Y-94201904D01*
X143219561Y-94440000D02*
X143933847Y-94678095D01*
X143933847Y-94059047D01*
X144267180Y-93678095D02*
X143267180Y-93678095D01*
X143743371Y-93678095D02*
X143743371Y-93106666D01*
X144267180Y-93106666D02*
X143267180Y-93106666D01*
X144171942Y-92059047D02*
X144219561Y-92106666D01*
X144267180Y-92249523D01*
X144267180Y-92344761D01*
X144219561Y-92487619D01*
X144124323Y-92582857D01*
X144029085Y-92630476D01*
X143838609Y-92678095D01*
X143695752Y-92678095D01*
X143505276Y-92630476D01*
X143410038Y-92582857D01*
X143314800Y-92487619D01*
X143267180Y-92344761D01*
X143267180Y-92249523D01*
X143314800Y-92106666D01*
X143362419Y-92059047D01*
X143600514Y-91201904D02*
X144267180Y-91201904D01*
X143219561Y-91440000D02*
X143933847Y-91678095D01*
X143933847Y-91059047D01*
X143267180Y-90487619D02*
X143267180Y-90392380D01*
X143314800Y-90297142D01*
X143362419Y-90249523D01*
X143457657Y-90201904D01*
X143648133Y-90154285D01*
X143886228Y-90154285D01*
X144076704Y-90201904D01*
X144171942Y-90249523D01*
X144219561Y-90297142D01*
X144267180Y-90392380D01*
X144267180Y-90487619D01*
X144219561Y-90582857D01*
X144171942Y-90630476D01*
X144076704Y-90678095D01*
X143886228Y-90725714D01*
X143648133Y-90725714D01*
X143457657Y-90678095D01*
X143362419Y-90630476D01*
X143314800Y-90582857D01*
X143267180Y-90487619D01*
X143267180Y-89249523D02*
X143267180Y-89725714D01*
X143743371Y-89773333D01*
X143695752Y-89725714D01*
X143648133Y-89630476D01*
X143648133Y-89392380D01*
X143695752Y-89297142D01*
X143743371Y-89249523D01*
X143838609Y-89201904D01*
X144076704Y-89201904D01*
X144171942Y-89249523D01*
X144219561Y-89297142D01*
X144267180Y-89392380D01*
X144267180Y-89630476D01*
X144219561Y-89725714D01*
X144171942Y-89773333D01*
X143267180Y-88582857D02*
X143267180Y-88487619D01*
X143314800Y-88392380D01*
X143362419Y-88344761D01*
X143457657Y-88297142D01*
X143648133Y-88249523D01*
X143886228Y-88249523D01*
X144076704Y-88297142D01*
X144171942Y-88344761D01*
X144219561Y-88392380D01*
X144267180Y-88487619D01*
X144267180Y-88582857D01*
X144219561Y-88678095D01*
X144171942Y-88725714D01*
X144076704Y-88773333D01*
X143886228Y-88820952D01*
X143648133Y-88820952D01*
X143457657Y-88773333D01*
X143362419Y-88725714D01*
X143314800Y-88678095D01*
X143267180Y-88582857D01*
X144267180Y-87820952D02*
X143267180Y-87820952D01*
X143267180Y-87582857D01*
X143314800Y-87440000D01*
X143410038Y-87344761D01*
X143505276Y-87297142D01*
X143695752Y-87249523D01*
X143838609Y-87249523D01*
X144029085Y-87297142D01*
X144124323Y-87344761D01*
X144219561Y-87440000D01*
X144267180Y-87582857D01*
X144267180Y-87820952D01*
%TO.C,R26*%
X168775142Y-95067380D02*
X168441809Y-94591190D01*
X168203714Y-95067380D02*
X168203714Y-94067380D01*
X168584666Y-94067380D01*
X168679904Y-94115000D01*
X168727523Y-94162619D01*
X168775142Y-94257857D01*
X168775142Y-94400714D01*
X168727523Y-94495952D01*
X168679904Y-94543571D01*
X168584666Y-94591190D01*
X168203714Y-94591190D01*
X169156095Y-94162619D02*
X169203714Y-94115000D01*
X169298952Y-94067380D01*
X169537047Y-94067380D01*
X169632285Y-94115000D01*
X169679904Y-94162619D01*
X169727523Y-94257857D01*
X169727523Y-94353095D01*
X169679904Y-94495952D01*
X169108476Y-95067380D01*
X169727523Y-95067380D01*
X170584666Y-94067380D02*
X170394190Y-94067380D01*
X170298952Y-94115000D01*
X170251333Y-94162619D01*
X170156095Y-94305476D01*
X170108476Y-94495952D01*
X170108476Y-94876904D01*
X170156095Y-94972142D01*
X170203714Y-95019761D01*
X170298952Y-95067380D01*
X170489428Y-95067380D01*
X170584666Y-95019761D01*
X170632285Y-94972142D01*
X170679904Y-94876904D01*
X170679904Y-94638809D01*
X170632285Y-94543571D01*
X170584666Y-94495952D01*
X170489428Y-94448333D01*
X170298952Y-94448333D01*
X170203714Y-94495952D01*
X170156095Y-94543571D01*
X170108476Y-94638809D01*
%TO.C,R12*%
X126992142Y-91892380D02*
X126658809Y-91416190D01*
X126420714Y-91892380D02*
X126420714Y-90892380D01*
X126801666Y-90892380D01*
X126896904Y-90940000D01*
X126944523Y-90987619D01*
X126992142Y-91082857D01*
X126992142Y-91225714D01*
X126944523Y-91320952D01*
X126896904Y-91368571D01*
X126801666Y-91416190D01*
X126420714Y-91416190D01*
X127944523Y-91892380D02*
X127373095Y-91892380D01*
X127658809Y-91892380D02*
X127658809Y-90892380D01*
X127563571Y-91035238D01*
X127468333Y-91130476D01*
X127373095Y-91178095D01*
X128325476Y-90987619D02*
X128373095Y-90940000D01*
X128468333Y-90892380D01*
X128706428Y-90892380D01*
X128801666Y-90940000D01*
X128849285Y-90987619D01*
X128896904Y-91082857D01*
X128896904Y-91178095D01*
X128849285Y-91320952D01*
X128277857Y-91892380D01*
X128896904Y-91892380D01*
%TO.C,R14*%
X126992142Y-94423860D02*
X126658809Y-93947670D01*
X126420714Y-94423860D02*
X126420714Y-93423860D01*
X126801666Y-93423860D01*
X126896904Y-93471480D01*
X126944523Y-93519099D01*
X126992142Y-93614337D01*
X126992142Y-93757194D01*
X126944523Y-93852432D01*
X126896904Y-93900051D01*
X126801666Y-93947670D01*
X126420714Y-93947670D01*
X127944523Y-94423860D02*
X127373095Y-94423860D01*
X127658809Y-94423860D02*
X127658809Y-93423860D01*
X127563571Y-93566718D01*
X127468333Y-93661956D01*
X127373095Y-93709575D01*
X128801666Y-93757194D02*
X128801666Y-94423860D01*
X128563571Y-93376241D02*
X128325476Y-94090527D01*
X128944523Y-94090527D01*
%TO.C,C5*%
X113818942Y-100166466D02*
X113866561Y-100214085D01*
X113914180Y-100356942D01*
X113914180Y-100452180D01*
X113866561Y-100595038D01*
X113771323Y-100690276D01*
X113676085Y-100737895D01*
X113485609Y-100785514D01*
X113342752Y-100785514D01*
X113152276Y-100737895D01*
X113057038Y-100690276D01*
X112961800Y-100595038D01*
X112914180Y-100452180D01*
X112914180Y-100356942D01*
X112961800Y-100214085D01*
X113009419Y-100166466D01*
X112914180Y-99261704D02*
X112914180Y-99737895D01*
X113390371Y-99785514D01*
X113342752Y-99737895D01*
X113295133Y-99642657D01*
X113295133Y-99404561D01*
X113342752Y-99309323D01*
X113390371Y-99261704D01*
X113485609Y-99214085D01*
X113723704Y-99214085D01*
X113818942Y-99261704D01*
X113866561Y-99309323D01*
X113914180Y-99404561D01*
X113914180Y-99642657D01*
X113866561Y-99737895D01*
X113818942Y-99785514D01*
%TO.C,R30*%
X144721342Y-79293980D02*
X144388009Y-78817790D01*
X144149914Y-79293980D02*
X144149914Y-78293980D01*
X144530866Y-78293980D01*
X144626104Y-78341600D01*
X144673723Y-78389219D01*
X144721342Y-78484457D01*
X144721342Y-78627314D01*
X144673723Y-78722552D01*
X144626104Y-78770171D01*
X144530866Y-78817790D01*
X144149914Y-78817790D01*
X145054676Y-78293980D02*
X145673723Y-78293980D01*
X145340390Y-78674933D01*
X145483247Y-78674933D01*
X145578485Y-78722552D01*
X145626104Y-78770171D01*
X145673723Y-78865409D01*
X145673723Y-79103504D01*
X145626104Y-79198742D01*
X145578485Y-79246361D01*
X145483247Y-79293980D01*
X145197533Y-79293980D01*
X145102295Y-79246361D01*
X145054676Y-79198742D01*
X146292771Y-78293980D02*
X146388009Y-78293980D01*
X146483247Y-78341600D01*
X146530866Y-78389219D01*
X146578485Y-78484457D01*
X146626104Y-78674933D01*
X146626104Y-78913028D01*
X146578485Y-79103504D01*
X146530866Y-79198742D01*
X146483247Y-79246361D01*
X146388009Y-79293980D01*
X146292771Y-79293980D01*
X146197533Y-79246361D01*
X146149914Y-79198742D01*
X146102295Y-79103504D01*
X146054676Y-78913028D01*
X146054676Y-78674933D01*
X146102295Y-78484457D01*
X146149914Y-78389219D01*
X146197533Y-78341600D01*
X146292771Y-78293980D01*
%TO.C,U1*%
X156997495Y-88047580D02*
X156997495Y-88857104D01*
X157045114Y-88952342D01*
X157092733Y-88999961D01*
X157187971Y-89047580D01*
X157378447Y-89047580D01*
X157473685Y-88999961D01*
X157521304Y-88952342D01*
X157568923Y-88857104D01*
X157568923Y-88047580D01*
X158568923Y-89047580D02*
X157997495Y-89047580D01*
X158283209Y-89047580D02*
X158283209Y-88047580D01*
X158187971Y-88190438D01*
X158092733Y-88285676D01*
X157997495Y-88333295D01*
X152106380Y-88629666D02*
X152106380Y-87963000D01*
X153106380Y-88391571D01*
X152439714Y-87153476D02*
X153106380Y-87153476D01*
X152058761Y-87391571D02*
X152773047Y-87629666D01*
X152773047Y-87010619D01*
X153106380Y-86629666D02*
X152106380Y-86629666D01*
X152582571Y-86629666D02*
X152582571Y-86058238D01*
X153106380Y-86058238D02*
X152106380Y-86058238D01*
X153011142Y-85010619D02*
X153058761Y-85058238D01*
X153106380Y-85201095D01*
X153106380Y-85296333D01*
X153058761Y-85439190D01*
X152963523Y-85534428D01*
X152868285Y-85582047D01*
X152677809Y-85629666D01*
X152534952Y-85629666D01*
X152344476Y-85582047D01*
X152249238Y-85534428D01*
X152154000Y-85439190D01*
X152106380Y-85296333D01*
X152106380Y-85201095D01*
X152154000Y-85058238D01*
X152201619Y-85010619D01*
X152106380Y-84724904D02*
X152106380Y-84153476D01*
X153106380Y-84439190D02*
X152106380Y-84439190D01*
X153106380Y-83296333D02*
X153106380Y-83867761D01*
X153106380Y-83582047D02*
X152106380Y-83582047D01*
X152249238Y-83677285D01*
X152344476Y-83772523D01*
X152392095Y-83867761D01*
X152439714Y-82439190D02*
X153106380Y-82439190D01*
X152058761Y-82677285D02*
X152773047Y-82915380D01*
X152773047Y-82296333D01*
X153106380Y-81915380D02*
X152106380Y-81915380D01*
X152106380Y-81677285D01*
X152154000Y-81534428D01*
X152249238Y-81439190D01*
X152344476Y-81391571D01*
X152534952Y-81343952D01*
X152677809Y-81343952D01*
X152868285Y-81391571D01*
X152963523Y-81439190D01*
X153058761Y-81534428D01*
X153106380Y-81677285D01*
X153106380Y-81915380D01*
%TO.C,R23*%
X126992142Y-89352380D02*
X126658809Y-88876190D01*
X126420714Y-89352380D02*
X126420714Y-88352380D01*
X126801666Y-88352380D01*
X126896904Y-88400000D01*
X126944523Y-88447619D01*
X126992142Y-88542857D01*
X126992142Y-88685714D01*
X126944523Y-88780952D01*
X126896904Y-88828571D01*
X126801666Y-88876190D01*
X126420714Y-88876190D01*
X127373095Y-88447619D02*
X127420714Y-88400000D01*
X127515952Y-88352380D01*
X127754047Y-88352380D01*
X127849285Y-88400000D01*
X127896904Y-88447619D01*
X127944523Y-88542857D01*
X127944523Y-88638095D01*
X127896904Y-88780952D01*
X127325476Y-89352380D01*
X127944523Y-89352380D01*
X128277857Y-88352380D02*
X128896904Y-88352380D01*
X128563571Y-88733333D01*
X128706428Y-88733333D01*
X128801666Y-88780952D01*
X128849285Y-88828571D01*
X128896904Y-88923809D01*
X128896904Y-89161904D01*
X128849285Y-89257142D01*
X128801666Y-89304761D01*
X128706428Y-89352380D01*
X128420714Y-89352380D01*
X128325476Y-89304761D01*
X128277857Y-89257142D01*
%TO.C,R16*%
X126992142Y-96963860D02*
X126658809Y-96487670D01*
X126420714Y-96963860D02*
X126420714Y-95963860D01*
X126801666Y-95963860D01*
X126896904Y-96011480D01*
X126944523Y-96059099D01*
X126992142Y-96154337D01*
X126992142Y-96297194D01*
X126944523Y-96392432D01*
X126896904Y-96440051D01*
X126801666Y-96487670D01*
X126420714Y-96487670D01*
X127944523Y-96963860D02*
X127373095Y-96963860D01*
X127658809Y-96963860D02*
X127658809Y-95963860D01*
X127563571Y-96106718D01*
X127468333Y-96201956D01*
X127373095Y-96249575D01*
X128801666Y-95963860D02*
X128611190Y-95963860D01*
X128515952Y-96011480D01*
X128468333Y-96059099D01*
X128373095Y-96201956D01*
X128325476Y-96392432D01*
X128325476Y-96773384D01*
X128373095Y-96868622D01*
X128420714Y-96916241D01*
X128515952Y-96963860D01*
X128706428Y-96963860D01*
X128801666Y-96916241D01*
X128849285Y-96868622D01*
X128896904Y-96773384D01*
X128896904Y-96535289D01*
X128849285Y-96440051D01*
X128801666Y-96392432D01*
X128706428Y-96344813D01*
X128515952Y-96344813D01*
X128420714Y-96392432D01*
X128373095Y-96440051D01*
X128325476Y-96535289D01*
%TO.C,R24*%
X168775142Y-77287380D02*
X168441809Y-76811190D01*
X168203714Y-77287380D02*
X168203714Y-76287380D01*
X168584666Y-76287380D01*
X168679904Y-76335000D01*
X168727523Y-76382619D01*
X168775142Y-76477857D01*
X168775142Y-76620714D01*
X168727523Y-76715952D01*
X168679904Y-76763571D01*
X168584666Y-76811190D01*
X168203714Y-76811190D01*
X169156095Y-76382619D02*
X169203714Y-76335000D01*
X169298952Y-76287380D01*
X169537047Y-76287380D01*
X169632285Y-76335000D01*
X169679904Y-76382619D01*
X169727523Y-76477857D01*
X169727523Y-76573095D01*
X169679904Y-76715952D01*
X169108476Y-77287380D01*
X169727523Y-77287380D01*
X170584666Y-76620714D02*
X170584666Y-77287380D01*
X170346571Y-76239761D02*
X170108476Y-76954047D01*
X170727523Y-76954047D01*
%TO.C,R9*%
X126992142Y-86812380D02*
X126658809Y-86336190D01*
X126420713Y-86812380D02*
X126420713Y-85812380D01*
X126801666Y-85812380D01*
X126896904Y-85860000D01*
X126944523Y-85907619D01*
X126992142Y-86002857D01*
X126992142Y-86145714D01*
X126944523Y-86240952D01*
X126896904Y-86288571D01*
X126801666Y-86336190D01*
X126420713Y-86336190D01*
X127468332Y-86812380D02*
X127658809Y-86812380D01*
X127754047Y-86764761D01*
X127801666Y-86717142D01*
X127896904Y-86574285D01*
X127944523Y-86383809D01*
X127944523Y-86002857D01*
X127896904Y-85907619D01*
X127849285Y-85860000D01*
X127754047Y-85812380D01*
X127563570Y-85812380D01*
X127468332Y-85860000D01*
X127420713Y-85907619D01*
X127373094Y-86002857D01*
X127373094Y-86240952D01*
X127420713Y-86336190D01*
X127468332Y-86383809D01*
X127563570Y-86431428D01*
X127754047Y-86431428D01*
X127849285Y-86383809D01*
X127896904Y-86336190D01*
X127944523Y-86240952D01*
%TO.C,R3*%
X126992142Y-79192380D02*
X126658809Y-78716190D01*
X126420713Y-79192380D02*
X126420713Y-78192380D01*
X126801666Y-78192380D01*
X126896904Y-78240000D01*
X126944523Y-78287619D01*
X126992142Y-78382857D01*
X126992142Y-78525714D01*
X126944523Y-78620952D01*
X126896904Y-78668571D01*
X126801666Y-78716190D01*
X126420713Y-78716190D01*
X127325475Y-78192380D02*
X127944523Y-78192380D01*
X127611189Y-78573333D01*
X127754047Y-78573333D01*
X127849285Y-78620952D01*
X127896904Y-78668571D01*
X127944523Y-78763809D01*
X127944523Y-79001904D01*
X127896904Y-79097142D01*
X127849285Y-79144761D01*
X127754047Y-79192380D01*
X127468332Y-79192380D01*
X127373094Y-79144761D01*
X127325475Y-79097142D01*
%TO.C,R19*%
X115181142Y-102052380D02*
X114847809Y-101576190D01*
X114609714Y-102052380D02*
X114609714Y-101052380D01*
X114990666Y-101052380D01*
X115085904Y-101100000D01*
X115133523Y-101147619D01*
X115181142Y-101242857D01*
X115181142Y-101385714D01*
X115133523Y-101480952D01*
X115085904Y-101528571D01*
X114990666Y-101576190D01*
X114609714Y-101576190D01*
X116133523Y-102052380D02*
X115562095Y-102052380D01*
X115847809Y-102052380D02*
X115847809Y-101052380D01*
X115752571Y-101195238D01*
X115657333Y-101290476D01*
X115562095Y-101338095D01*
X116609714Y-102052380D02*
X116800190Y-102052380D01*
X116895428Y-102004761D01*
X116943047Y-101957142D01*
X117038285Y-101814285D01*
X117085904Y-101623809D01*
X117085904Y-101242857D01*
X117038285Y-101147619D01*
X116990666Y-101100000D01*
X116895428Y-101052380D01*
X116704952Y-101052380D01*
X116609714Y-101100000D01*
X116562095Y-101147619D01*
X116514476Y-101242857D01*
X116514476Y-101480952D01*
X116562095Y-101576190D01*
X116609714Y-101623809D01*
X116704952Y-101671428D01*
X116895428Y-101671428D01*
X116990666Y-101623809D01*
X117038285Y-101576190D01*
X117085904Y-101480952D01*
%TO.C,Q4*%
X133254761Y-95797619D02*
X133159523Y-95750000D01*
X133064285Y-95654761D01*
X132921428Y-95511904D01*
X132826190Y-95464285D01*
X132730952Y-95464285D01*
X132778571Y-95702380D02*
X132683333Y-95654761D01*
X132588095Y-95559523D01*
X132540476Y-95369047D01*
X132540476Y-95035714D01*
X132588095Y-94845238D01*
X132683333Y-94750000D01*
X132778571Y-94702380D01*
X132969047Y-94702380D01*
X133064285Y-94750000D01*
X133159523Y-94845238D01*
X133207142Y-95035714D01*
X133207142Y-95369047D01*
X133159523Y-95559523D01*
X133064285Y-95654761D01*
X132969047Y-95702380D01*
X132778571Y-95702380D01*
X134064285Y-95035714D02*
X134064285Y-95702380D01*
X133826190Y-94654761D02*
X133588095Y-95369047D01*
X134207142Y-95369047D01*
%TO.C,Q6*%
X133254761Y-99607619D02*
X133159523Y-99560000D01*
X133064285Y-99464761D01*
X132921428Y-99321904D01*
X132826190Y-99274285D01*
X132730952Y-99274285D01*
X132778571Y-99512380D02*
X132683333Y-99464761D01*
X132588095Y-99369523D01*
X132540476Y-99179047D01*
X132540476Y-98845714D01*
X132588095Y-98655238D01*
X132683333Y-98560000D01*
X132778571Y-98512380D01*
X132969047Y-98512380D01*
X133064285Y-98560000D01*
X133159523Y-98655238D01*
X133207142Y-98845714D01*
X133207142Y-99179047D01*
X133159523Y-99369523D01*
X133064285Y-99464761D01*
X132969047Y-99512380D01*
X132778571Y-99512380D01*
X134064285Y-98512380D02*
X133873809Y-98512380D01*
X133778571Y-98560000D01*
X133730952Y-98607619D01*
X133635714Y-98750476D01*
X133588095Y-98940952D01*
X133588095Y-99321904D01*
X133635714Y-99417142D01*
X133683333Y-99464761D01*
X133778571Y-99512380D01*
X133969047Y-99512380D01*
X134064285Y-99464761D01*
X134111904Y-99417142D01*
X134159523Y-99321904D01*
X134159523Y-99083809D01*
X134111904Y-98988571D01*
X134064285Y-98940952D01*
X133969047Y-98893333D01*
X133778571Y-98893333D01*
X133683333Y-98940952D01*
X133635714Y-98988571D01*
X133588095Y-99083809D01*
%TO.C,Q3*%
X133254761Y-88177619D02*
X133159523Y-88130000D01*
X133064285Y-88034761D01*
X132921428Y-87891904D01*
X132826190Y-87844285D01*
X132730952Y-87844285D01*
X132778571Y-88082380D02*
X132683333Y-88034761D01*
X132588095Y-87939523D01*
X132540476Y-87749047D01*
X132540476Y-87415714D01*
X132588095Y-87225238D01*
X132683333Y-87130000D01*
X132778571Y-87082380D01*
X132969047Y-87082380D01*
X133064285Y-87130000D01*
X133159523Y-87225238D01*
X133207142Y-87415714D01*
X133207142Y-87749047D01*
X133159523Y-87939523D01*
X133064285Y-88034761D01*
X132969047Y-88082380D01*
X132778571Y-88082380D01*
X133540476Y-87082380D02*
X134159523Y-87082380D01*
X133826190Y-87463333D01*
X133969047Y-87463333D01*
X134064285Y-87510952D01*
X134111904Y-87558571D01*
X134159523Y-87653809D01*
X134159523Y-87891904D01*
X134111904Y-87987142D01*
X134064285Y-88034761D01*
X133969047Y-88082380D01*
X133683333Y-88082380D01*
X133588095Y-88034761D01*
X133540476Y-87987142D01*
%TO.C,C6*%
X144740333Y-85320142D02*
X144692714Y-85367761D01*
X144549857Y-85415380D01*
X144454619Y-85415380D01*
X144311761Y-85367761D01*
X144216523Y-85272523D01*
X144168904Y-85177285D01*
X144121285Y-84986809D01*
X144121285Y-84843952D01*
X144168904Y-84653476D01*
X144216523Y-84558238D01*
X144311761Y-84463000D01*
X144454619Y-84415380D01*
X144549857Y-84415380D01*
X144692714Y-84463000D01*
X144740333Y-84510619D01*
X145597476Y-84415380D02*
X145407000Y-84415380D01*
X145311761Y-84463000D01*
X145264142Y-84510619D01*
X145168904Y-84653476D01*
X145121285Y-84843952D01*
X145121285Y-85224904D01*
X145168904Y-85320142D01*
X145216523Y-85367761D01*
X145311761Y-85415380D01*
X145502238Y-85415380D01*
X145597476Y-85367761D01*
X145645095Y-85320142D01*
X145692714Y-85224904D01*
X145692714Y-84986809D01*
X145645095Y-84891571D01*
X145597476Y-84843952D01*
X145502238Y-84796333D01*
X145311761Y-84796333D01*
X145216523Y-84843952D01*
X145168904Y-84891571D01*
X145121285Y-84986809D01*
%TO.C,R10*%
X115181142Y-89352380D02*
X114847809Y-88876190D01*
X114609714Y-89352380D02*
X114609714Y-88352380D01*
X114990666Y-88352380D01*
X115085904Y-88400000D01*
X115133523Y-88447619D01*
X115181142Y-88542857D01*
X115181142Y-88685714D01*
X115133523Y-88780952D01*
X115085904Y-88828571D01*
X114990666Y-88876190D01*
X114609714Y-88876190D01*
X116133523Y-89352380D02*
X115562095Y-89352380D01*
X115847809Y-89352380D02*
X115847809Y-88352380D01*
X115752571Y-88495238D01*
X115657333Y-88590476D01*
X115562095Y-88638095D01*
X116752571Y-88352380D02*
X116847809Y-88352380D01*
X116943047Y-88400000D01*
X116990666Y-88447619D01*
X117038285Y-88542857D01*
X117085904Y-88733333D01*
X117085904Y-88971428D01*
X117038285Y-89161904D01*
X116990666Y-89257142D01*
X116943047Y-89304761D01*
X116847809Y-89352380D01*
X116752571Y-89352380D01*
X116657333Y-89304761D01*
X116609714Y-89257142D01*
X116562095Y-89161904D01*
X116514476Y-88971428D01*
X116514476Y-88733333D01*
X116562095Y-88542857D01*
X116609714Y-88447619D01*
X116657333Y-88400000D01*
X116752571Y-88352380D01*
%TO.C,R22*%
X126992142Y-104592380D02*
X126658809Y-104116190D01*
X126420714Y-104592380D02*
X126420714Y-103592380D01*
X126801666Y-103592380D01*
X126896904Y-103640000D01*
X126944523Y-103687619D01*
X126992142Y-103782857D01*
X126992142Y-103925714D01*
X126944523Y-104020952D01*
X126896904Y-104068571D01*
X126801666Y-104116190D01*
X126420714Y-104116190D01*
X127373095Y-103687619D02*
X127420714Y-103640000D01*
X127515952Y-103592380D01*
X127754047Y-103592380D01*
X127849285Y-103640000D01*
X127896904Y-103687619D01*
X127944523Y-103782857D01*
X127944523Y-103878095D01*
X127896904Y-104020952D01*
X127325476Y-104592380D01*
X127944523Y-104592380D01*
X128325476Y-103687619D02*
X128373095Y-103640000D01*
X128468333Y-103592380D01*
X128706428Y-103592380D01*
X128801666Y-103640000D01*
X128849285Y-103687619D01*
X128896904Y-103782857D01*
X128896904Y-103878095D01*
X128849285Y-104020952D01*
X128277857Y-104592380D01*
X128896904Y-104592380D01*
%TO.C,R2*%
X116133523Y-79192380D02*
X115800190Y-78716190D01*
X115562094Y-79192380D02*
X115562094Y-78192380D01*
X115943047Y-78192380D01*
X116038285Y-78240000D01*
X116085904Y-78287619D01*
X116133523Y-78382857D01*
X116133523Y-78525714D01*
X116085904Y-78620952D01*
X116038285Y-78668571D01*
X115943047Y-78716190D01*
X115562094Y-78716190D01*
X116514475Y-78287619D02*
X116562094Y-78240000D01*
X116657332Y-78192380D01*
X116895428Y-78192380D01*
X116990666Y-78240000D01*
X117038285Y-78287619D01*
X117085904Y-78382857D01*
X117085904Y-78478095D01*
X117038285Y-78620952D01*
X116466856Y-79192380D01*
X117085904Y-79192380D01*
%TO.C,R31*%
X144670542Y-103855780D02*
X144337209Y-103379590D01*
X144099114Y-103855780D02*
X144099114Y-102855780D01*
X144480066Y-102855780D01*
X144575304Y-102903400D01*
X144622923Y-102951019D01*
X144670542Y-103046257D01*
X144670542Y-103189114D01*
X144622923Y-103284352D01*
X144575304Y-103331971D01*
X144480066Y-103379590D01*
X144099114Y-103379590D01*
X145003876Y-102855780D02*
X145622923Y-102855780D01*
X145289590Y-103236733D01*
X145432447Y-103236733D01*
X145527685Y-103284352D01*
X145575304Y-103331971D01*
X145622923Y-103427209D01*
X145622923Y-103665304D01*
X145575304Y-103760542D01*
X145527685Y-103808161D01*
X145432447Y-103855780D01*
X145146733Y-103855780D01*
X145051495Y-103808161D01*
X145003876Y-103760542D01*
X146575304Y-103855780D02*
X146003876Y-103855780D01*
X146289590Y-103855780D02*
X146289590Y-102855780D01*
X146194352Y-102998638D01*
X146099114Y-103093876D01*
X146003876Y-103141495D01*
%TO.C,R18*%
X126992142Y-99512380D02*
X126658809Y-99036190D01*
X126420714Y-99512380D02*
X126420714Y-98512380D01*
X126801666Y-98512380D01*
X126896904Y-98560000D01*
X126944523Y-98607619D01*
X126992142Y-98702857D01*
X126992142Y-98845714D01*
X126944523Y-98940952D01*
X126896904Y-98988571D01*
X126801666Y-99036190D01*
X126420714Y-99036190D01*
X127944523Y-99512380D02*
X127373095Y-99512380D01*
X127658809Y-99512380D02*
X127658809Y-98512380D01*
X127563571Y-98655238D01*
X127468333Y-98750476D01*
X127373095Y-98798095D01*
X128515952Y-98940952D02*
X128420714Y-98893333D01*
X128373095Y-98845714D01*
X128325476Y-98750476D01*
X128325476Y-98702857D01*
X128373095Y-98607619D01*
X128420714Y-98560000D01*
X128515952Y-98512380D01*
X128706428Y-98512380D01*
X128801666Y-98560000D01*
X128849285Y-98607619D01*
X128896904Y-98702857D01*
X128896904Y-98750476D01*
X128849285Y-98845714D01*
X128801666Y-98893333D01*
X128706428Y-98940952D01*
X128515952Y-98940952D01*
X128420714Y-98988571D01*
X128373095Y-99036190D01*
X128325476Y-99131428D01*
X128325476Y-99321904D01*
X128373095Y-99417142D01*
X128420714Y-99464761D01*
X128515952Y-99512380D01*
X128706428Y-99512380D01*
X128801666Y-99464761D01*
X128849285Y-99417142D01*
X128896904Y-99321904D01*
X128896904Y-99131428D01*
X128849285Y-99036190D01*
X128801666Y-98988571D01*
X128706428Y-98940952D01*
%TO.C,R25*%
X168775142Y-86177380D02*
X168441809Y-85701190D01*
X168203714Y-86177380D02*
X168203714Y-85177380D01*
X168584666Y-85177380D01*
X168679904Y-85225000D01*
X168727523Y-85272619D01*
X168775142Y-85367857D01*
X168775142Y-85510714D01*
X168727523Y-85605952D01*
X168679904Y-85653571D01*
X168584666Y-85701190D01*
X168203714Y-85701190D01*
X169156095Y-85272619D02*
X169203714Y-85225000D01*
X169298952Y-85177380D01*
X169537047Y-85177380D01*
X169632285Y-85225000D01*
X169679904Y-85272619D01*
X169727523Y-85367857D01*
X169727523Y-85463095D01*
X169679904Y-85605952D01*
X169108476Y-86177380D01*
X169727523Y-86177380D01*
X170632285Y-85177380D02*
X170156095Y-85177380D01*
X170108476Y-85653571D01*
X170156095Y-85605952D01*
X170251333Y-85558333D01*
X170489428Y-85558333D01*
X170584666Y-85605952D01*
X170632285Y-85653571D01*
X170679904Y-85748809D01*
X170679904Y-85986904D01*
X170632285Y-86082142D01*
X170584666Y-86129761D01*
X170489428Y-86177380D01*
X170251333Y-86177380D01*
X170156095Y-86129761D01*
X170108476Y-86082142D01*
%TO.C,R27*%
X144721342Y-81224380D02*
X144388009Y-80748190D01*
X144149914Y-81224380D02*
X144149914Y-80224380D01*
X144530866Y-80224380D01*
X144626104Y-80272000D01*
X144673723Y-80319619D01*
X144721342Y-80414857D01*
X144721342Y-80557714D01*
X144673723Y-80652952D01*
X144626104Y-80700571D01*
X144530866Y-80748190D01*
X144149914Y-80748190D01*
X145102295Y-80319619D02*
X145149914Y-80272000D01*
X145245152Y-80224380D01*
X145483247Y-80224380D01*
X145578485Y-80272000D01*
X145626104Y-80319619D01*
X145673723Y-80414857D01*
X145673723Y-80510095D01*
X145626104Y-80652952D01*
X145054676Y-81224380D01*
X145673723Y-81224380D01*
X146007057Y-80224380D02*
X146673723Y-80224380D01*
X146245152Y-81224380D01*
%TO.C,R29*%
X144695942Y-101544380D02*
X144362609Y-101068190D01*
X144124514Y-101544380D02*
X144124514Y-100544380D01*
X144505466Y-100544380D01*
X144600704Y-100592000D01*
X144648323Y-100639619D01*
X144695942Y-100734857D01*
X144695942Y-100877714D01*
X144648323Y-100972952D01*
X144600704Y-101020571D01*
X144505466Y-101068190D01*
X144124514Y-101068190D01*
X145076895Y-100639619D02*
X145124514Y-100592000D01*
X145219752Y-100544380D01*
X145457847Y-100544380D01*
X145553085Y-100592000D01*
X145600704Y-100639619D01*
X145648323Y-100734857D01*
X145648323Y-100830095D01*
X145600704Y-100972952D01*
X145029276Y-101544380D01*
X145648323Y-101544380D01*
X146124514Y-101544380D02*
X146314990Y-101544380D01*
X146410228Y-101496761D01*
X146457847Y-101449142D01*
X146553085Y-101306285D01*
X146600704Y-101115809D01*
X146600704Y-100734857D01*
X146553085Y-100639619D01*
X146505466Y-100592000D01*
X146410228Y-100544380D01*
X146219752Y-100544380D01*
X146124514Y-100592000D01*
X146076895Y-100639619D01*
X146029276Y-100734857D01*
X146029276Y-100972952D01*
X146076895Y-101068190D01*
X146124514Y-101115809D01*
X146219752Y-101163428D01*
X146410228Y-101163428D01*
X146505466Y-101115809D01*
X146553085Y-101068190D01*
X146600704Y-100972952D01*
%TO.C,C3*%
X149388533Y-93041742D02*
X149340914Y-93089361D01*
X149198057Y-93136980D01*
X149102819Y-93136980D01*
X148959961Y-93089361D01*
X148864723Y-92994123D01*
X148817104Y-92898885D01*
X148769485Y-92708409D01*
X148769485Y-92565552D01*
X148817104Y-92375076D01*
X148864723Y-92279838D01*
X148959961Y-92184600D01*
X149102819Y-92136980D01*
X149198057Y-92136980D01*
X149340914Y-92184600D01*
X149388533Y-92232219D01*
X149721866Y-92136980D02*
X150340914Y-92136980D01*
X150007580Y-92517933D01*
X150150438Y-92517933D01*
X150245676Y-92565552D01*
X150293295Y-92613171D01*
X150340914Y-92708409D01*
X150340914Y-92946504D01*
X150293295Y-93041742D01*
X150245676Y-93089361D01*
X150150438Y-93136980D01*
X149864723Y-93136980D01*
X149769485Y-93089361D01*
X149721866Y-93041742D01*
%TO.C,R4*%
X116133523Y-81732380D02*
X115800190Y-81256190D01*
X115562094Y-81732380D02*
X115562094Y-80732380D01*
X115943047Y-80732380D01*
X116038285Y-80780000D01*
X116085904Y-80827619D01*
X116133523Y-80922857D01*
X116133523Y-81065714D01*
X116085904Y-81160952D01*
X116038285Y-81208571D01*
X115943047Y-81256190D01*
X115562094Y-81256190D01*
X116990666Y-81065714D02*
X116990666Y-81732380D01*
X116752570Y-80684761D02*
X116514475Y-81399047D01*
X117133523Y-81399047D01*
%TO.C,R20*%
X126992142Y-102052380D02*
X126658809Y-101576190D01*
X126420714Y-102052380D02*
X126420714Y-101052380D01*
X126801666Y-101052380D01*
X126896904Y-101100000D01*
X126944523Y-101147619D01*
X126992142Y-101242857D01*
X126992142Y-101385714D01*
X126944523Y-101480952D01*
X126896904Y-101528571D01*
X126801666Y-101576190D01*
X126420714Y-101576190D01*
X127373095Y-101147619D02*
X127420714Y-101100000D01*
X127515952Y-101052380D01*
X127754047Y-101052380D01*
X127849285Y-101100000D01*
X127896904Y-101147619D01*
X127944523Y-101242857D01*
X127944523Y-101338095D01*
X127896904Y-101480952D01*
X127325476Y-102052380D01*
X127944523Y-102052380D01*
X128563571Y-101052380D02*
X128658809Y-101052380D01*
X128754047Y-101100000D01*
X128801666Y-101147619D01*
X128849285Y-101242857D01*
X128896904Y-101433333D01*
X128896904Y-101671428D01*
X128849285Y-101861904D01*
X128801666Y-101957142D01*
X128754047Y-102004761D01*
X128658809Y-102052380D01*
X128563571Y-102052380D01*
X128468333Y-102004761D01*
X128420714Y-101957142D01*
X128373095Y-101861904D01*
X128325476Y-101671428D01*
X128325476Y-101433333D01*
X128373095Y-101242857D01*
X128420714Y-101147619D01*
X128468333Y-101100000D01*
X128563571Y-101052380D01*
%TO.C,Q7*%
X133254761Y-104687619D02*
X133159523Y-104640000D01*
X133064285Y-104544761D01*
X132921428Y-104401904D01*
X132826190Y-104354285D01*
X132730952Y-104354285D01*
X132778571Y-104592380D02*
X132683333Y-104544761D01*
X132588095Y-104449523D01*
X132540476Y-104259047D01*
X132540476Y-103925714D01*
X132588095Y-103735238D01*
X132683333Y-103640000D01*
X132778571Y-103592380D01*
X132969047Y-103592380D01*
X133064285Y-103640000D01*
X133159523Y-103735238D01*
X133207142Y-103925714D01*
X133207142Y-104259047D01*
X133159523Y-104449523D01*
X133064285Y-104544761D01*
X132969047Y-104592380D01*
X132778571Y-104592380D01*
X133540476Y-103592380D02*
X134207142Y-103592380D01*
X133778571Y-104592380D01*
%TO.C,R1*%
X144689533Y-99258380D02*
X144356200Y-98782190D01*
X144118104Y-99258380D02*
X144118104Y-98258380D01*
X144499057Y-98258380D01*
X144594295Y-98306000D01*
X144641914Y-98353619D01*
X144689533Y-98448857D01*
X144689533Y-98591714D01*
X144641914Y-98686952D01*
X144594295Y-98734571D01*
X144499057Y-98782190D01*
X144118104Y-98782190D01*
X145641914Y-99258380D02*
X145070485Y-99258380D01*
X145356200Y-99258380D02*
X145356200Y-98258380D01*
X145260961Y-98401238D01*
X145165723Y-98496476D01*
X145070485Y-98544095D01*
%TO.C,Q2*%
X133254761Y-79922619D02*
X133159523Y-79875000D01*
X133064285Y-79779761D01*
X132921428Y-79636904D01*
X132826190Y-79589285D01*
X132730952Y-79589285D01*
X132778571Y-79827380D02*
X132683333Y-79779761D01*
X132588095Y-79684523D01*
X132540476Y-79494047D01*
X132540476Y-79160714D01*
X132588095Y-78970238D01*
X132683333Y-78875000D01*
X132778571Y-78827380D01*
X132969047Y-78827380D01*
X133064285Y-78875000D01*
X133159523Y-78970238D01*
X133207142Y-79160714D01*
X133207142Y-79494047D01*
X133159523Y-79684523D01*
X133064285Y-79779761D01*
X132969047Y-79827380D01*
X132778571Y-79827380D01*
X133588095Y-78922619D02*
X133635714Y-78875000D01*
X133730952Y-78827380D01*
X133969047Y-78827380D01*
X134064285Y-78875000D01*
X134111904Y-78922619D01*
X134159523Y-79017857D01*
X134159523Y-79113095D01*
X134111904Y-79255952D01*
X133540476Y-79827380D01*
X134159523Y-79827380D01*
%TO.C,R8*%
X116133523Y-86812380D02*
X115800190Y-86336190D01*
X115562094Y-86812380D02*
X115562094Y-85812380D01*
X115943047Y-85812380D01*
X116038285Y-85860000D01*
X116085904Y-85907619D01*
X116133523Y-86002857D01*
X116133523Y-86145714D01*
X116085904Y-86240952D01*
X116038285Y-86288571D01*
X115943047Y-86336190D01*
X115562094Y-86336190D01*
X116704951Y-86240952D02*
X116609713Y-86193333D01*
X116562094Y-86145714D01*
X116514475Y-86050476D01*
X116514475Y-86002857D01*
X116562094Y-85907619D01*
X116609713Y-85860000D01*
X116704951Y-85812380D01*
X116895428Y-85812380D01*
X116990666Y-85860000D01*
X117038285Y-85907619D01*
X117085904Y-86002857D01*
X117085904Y-86050476D01*
X117038285Y-86145714D01*
X116990666Y-86193333D01*
X116895428Y-86240952D01*
X116704951Y-86240952D01*
X116609713Y-86288571D01*
X116562094Y-86336190D01*
X116514475Y-86431428D01*
X116514475Y-86621904D01*
X116562094Y-86717142D01*
X116609713Y-86764761D01*
X116704951Y-86812380D01*
X116895428Y-86812380D01*
X116990666Y-86764761D01*
X117038285Y-86717142D01*
X117085904Y-86621904D01*
X117085904Y-86431428D01*
X117038285Y-86336190D01*
X116990666Y-86288571D01*
X116895428Y-86240952D01*
%TO.C,R7*%
X126992142Y-84272380D02*
X126658809Y-83796190D01*
X126420713Y-84272380D02*
X126420713Y-83272380D01*
X126801666Y-83272380D01*
X126896904Y-83320000D01*
X126944523Y-83367619D01*
X126992142Y-83462857D01*
X126992142Y-83605714D01*
X126944523Y-83700952D01*
X126896904Y-83748571D01*
X126801666Y-83796190D01*
X126420713Y-83796190D01*
X127325475Y-83272380D02*
X127992142Y-83272380D01*
X127563570Y-84272380D01*
D12*
%TO.C,C4*%
X118845000Y-75953252D02*
X118845000Y-75430748D01*
X117375000Y-75953252D02*
X117375000Y-75430748D01*
%TO.C,R11*%
X119787936Y-90705000D02*
X120242064Y-90705000D01*
X119787936Y-92175000D02*
X120242064Y-92175000D01*
%TO.C,R13*%
X119787936Y-94706480D02*
X120242064Y-94706480D01*
X119787936Y-93236480D02*
X120242064Y-93236480D01*
%TO.C,R28*%
X142187664Y-83437400D02*
X141733536Y-83437400D01*
X142187664Y-81967400D02*
X141733536Y-81967400D01*
%TO.C,R21*%
X119787936Y-103405000D02*
X120242064Y-103405000D01*
X119787936Y-104875000D02*
X120242064Y-104875000D01*
%TO.C,R6*%
X119787936Y-84555000D02*
X120242064Y-84555000D01*
X119787936Y-83085000D02*
X120242064Y-83085000D01*
%TO.C,R17*%
X119787936Y-98325000D02*
X120242064Y-98325000D01*
X119787936Y-99795000D02*
X120242064Y-99795000D01*
%TO.C,Q1*%
X130175000Y-82260000D02*
X129525000Y-82260000D01*
X130175000Y-85380000D02*
X131850000Y-85380000D01*
X130175000Y-82260000D02*
X130825000Y-82260000D01*
X130175000Y-85380000D02*
X129525000Y-85380000D01*
%TO.C,Q5*%
X130175000Y-93000000D02*
X131850000Y-93000000D01*
X130175000Y-89880000D02*
X130825000Y-89880000D01*
X130175000Y-93000000D02*
X129525000Y-93000000D01*
X130175000Y-89880000D02*
X129525000Y-89880000D01*
%TO.C,R5*%
X124232936Y-80545000D02*
X124687064Y-80545000D01*
X124232936Y-82015000D02*
X124687064Y-82015000D01*
%TO.C,R15*%
X119787936Y-95776480D02*
X120242064Y-95776480D01*
X119787936Y-97246480D02*
X120242064Y-97246480D01*
%TO.C,U2*%
X143865600Y-96474600D02*
X141915600Y-96474600D01*
X143865600Y-86354600D02*
X140415600Y-86354600D01*
X143865600Y-86354600D02*
X145815600Y-86354600D01*
X143865600Y-96474600D02*
X145815600Y-96474600D01*
%TO.C,R26*%
X169645064Y-97255000D02*
X169190936Y-97255000D01*
X169645064Y-95785000D02*
X169190936Y-95785000D01*
%TO.C,R12*%
X124232936Y-90705000D02*
X124687064Y-90705000D01*
X124232936Y-92175000D02*
X124687064Y-92175000D01*
%TO.C,R14*%
X124232936Y-94706480D02*
X124687064Y-94706480D01*
X124232936Y-93236480D02*
X124687064Y-93236480D01*
%TO.C,C5*%
X114196800Y-103359852D02*
X114196800Y-102837348D01*
X112726800Y-103359852D02*
X112726800Y-102837348D01*
D13*
%TO.C,U3*%
X111761480Y-110364918D02*
X111761480Y-72364918D01*
X165761480Y-110364918D02*
X165761480Y-72364918D01*
X111761480Y-72364918D02*
X165761480Y-72364918D01*
X111761480Y-110364918D02*
X165761480Y-110364918D01*
D12*
%TO.C,R30*%
X142187664Y-78030400D02*
X141733536Y-78030400D01*
X142187664Y-79500400D02*
X141733536Y-79500400D01*
%TO.C,U1*%
X152654000Y-80401000D02*
X154604000Y-80401000D01*
X152654000Y-89271000D02*
X150704000Y-89271000D01*
X152654000Y-80401000D02*
X150704000Y-80401000D01*
X152654000Y-89271000D02*
X156104000Y-89271000D01*
%TO.C,R23*%
X124232936Y-89635000D02*
X124687064Y-89635000D01*
X124232936Y-88165000D02*
X124687064Y-88165000D01*
%TO.C,R16*%
X124232936Y-95776480D02*
X124687064Y-95776480D01*
X124232936Y-97246480D02*
X124687064Y-97246480D01*
%TO.C,R24*%
X169645064Y-79475000D02*
X169190936Y-79475000D01*
X169645064Y-78005000D02*
X169190936Y-78005000D01*
%TO.C,R9*%
X124232936Y-87095000D02*
X124687064Y-87095000D01*
X124232936Y-85625000D02*
X124687064Y-85625000D01*
%TO.C,R3*%
X124232936Y-79475000D02*
X124687064Y-79475000D01*
X124232936Y-78005000D02*
X124687064Y-78005000D01*
%TO.C,R19*%
X119787936Y-102335000D02*
X120242064Y-102335000D01*
X119787936Y-100865000D02*
X120242064Y-100865000D01*
%TO.C,Q4*%
X130175000Y-93690000D02*
X129525000Y-93690000D01*
X130175000Y-96810000D02*
X131850000Y-96810000D01*
X130175000Y-96810000D02*
X129525000Y-96810000D01*
X130175000Y-93690000D02*
X130825000Y-93690000D01*
%TO.C,Q6*%
X130175000Y-100620000D02*
X131850000Y-100620000D01*
X130175000Y-97500000D02*
X130825000Y-97500000D01*
X130175000Y-97500000D02*
X129525000Y-97500000D01*
X130175000Y-100620000D02*
X129525000Y-100620000D01*
%TO.C,Q3*%
X130175000Y-86070000D02*
X129525000Y-86070000D01*
X130175000Y-86070000D02*
X130825000Y-86070000D01*
X130175000Y-89190000D02*
X131850000Y-89190000D01*
X130175000Y-89190000D02*
X129525000Y-89190000D01*
%TO.C,C6*%
X141724748Y-84199000D02*
X142247252Y-84199000D01*
X141724748Y-85669000D02*
X142247252Y-85669000D01*
%TO.C,R10*%
X119787936Y-89635000D02*
X120242064Y-89635000D01*
X119787936Y-88165000D02*
X120242064Y-88165000D01*
%TO.C,R22*%
X124232936Y-104875000D02*
X124687064Y-104875000D01*
X124232936Y-103405000D02*
X124687064Y-103405000D01*
%TO.C,R2*%
X119787936Y-78005000D02*
X120242064Y-78005000D01*
X119787936Y-79475000D02*
X120242064Y-79475000D01*
%TO.C,R31*%
X142213064Y-104138400D02*
X141758936Y-104138400D01*
X142213064Y-102668400D02*
X141758936Y-102668400D01*
%TO.C,R18*%
X124232936Y-99795000D02*
X124687064Y-99795000D01*
X124232936Y-98325000D02*
X124687064Y-98325000D01*
%TO.C,R25*%
X169645064Y-86895000D02*
X169190936Y-86895000D01*
X169645064Y-88365000D02*
X169190936Y-88365000D01*
%TO.C,R27*%
X142187664Y-80011600D02*
X141733536Y-80011600D01*
X142187664Y-81481600D02*
X141733536Y-81481600D01*
%TO.C,R29*%
X142187664Y-101827000D02*
X141733536Y-101827000D01*
X142187664Y-100357000D02*
X141733536Y-100357000D01*
%TO.C,C3*%
X150614748Y-89943000D02*
X151137252Y-89943000D01*
X150614748Y-91413000D02*
X151137252Y-91413000D01*
%TO.C,R4*%
X119787936Y-80545000D02*
X120242064Y-80545000D01*
X119787936Y-82015000D02*
X120242064Y-82015000D01*
%TO.C,R20*%
X124232936Y-100865000D02*
X124687064Y-100865000D01*
X124232936Y-102335000D02*
X124687064Y-102335000D01*
%TO.C,Q7*%
X130175000Y-101310000D02*
X129525000Y-101310000D01*
X130175000Y-104430000D02*
X131850000Y-104430000D01*
X130175000Y-101310000D02*
X130825000Y-101310000D01*
X130175000Y-104430000D02*
X129525000Y-104430000D01*
%TO.C,R1*%
X142197064Y-98071000D02*
X141742936Y-98071000D01*
X142197064Y-99541000D02*
X141742936Y-99541000D01*
%TO.C,Q2*%
X130175000Y-81570000D02*
X131850000Y-81570000D01*
X130175000Y-78450000D02*
X130825000Y-78450000D01*
X130175000Y-81570000D02*
X129525000Y-81570000D01*
X130175000Y-78450000D02*
X129525000Y-78450000D01*
%TO.C,R8*%
X119787936Y-85625000D02*
X120242064Y-85625000D01*
X119787936Y-87095000D02*
X120242064Y-87095000D01*
%TO.C,R7*%
X124232936Y-83085000D02*
X124687064Y-83085000D01*
X124232936Y-84555000D02*
X124687064Y-84555000D01*
%TD*%
M02*
