%TF.GenerationSoftware,KiCad,Pcbnew,(6.0.11)*%
%TF.CreationDate,2023-03-14T22:18:48-05:00*%
%TF.ProjectId,rx02-mega2560-pro,72783032-2d6d-4656-9761-323536302d70,rev?*%
%TF.SameCoordinates,Original*%
%TF.FileFunction,Soldermask,Top*%
%TF.FilePolarity,Negative*%
%FSLAX46Y46*%
G04 Gerber Fmt 4.6, Leading zero omitted, Abs format (unit mm)*
G04 Created by KiCad (PCBNEW (6.0.11)) date 2023-03-14 22:18:48*
%MOMM*%
%LPD*%
G01*
G04 APERTURE LIST*
G04 Aperture macros list*
%AMRoundRect*
0 Rectangle with rounded corners*
0 $1 Rounding radius*
0 $2 $3 $4 $5 $6 $7 $8 $9 X,Y pos of 4 corners*
0 Add a 4 corners polygon primitive as box body*
4,1,4,$2,$3,$4,$5,$6,$7,$8,$9,$2,$3,0*
0 Add four circle primitives for the rounded corners*
1,1,$1+$1,$2,$3*
1,1,$1+$1,$4,$5*
1,1,$1+$1,$6,$7*
1,1,$1+$1,$8,$9*
0 Add four rect primitives between the rounded corners*
20,1,$1+$1,$2,$3,$4,$5,0*
20,1,$1+$1,$4,$5,$6,$7,0*
20,1,$1+$1,$6,$7,$8,$9,0*
20,1,$1+$1,$8,$9,$2,$3,0*%
G04 Aperture macros list end*
%ADD10RoundRect,0.250000X0.475000X-0.337500X0.475000X0.337500X-0.475000X0.337500X-0.475000X-0.337500X0*%
%ADD11RoundRect,0.250000X-0.350000X-0.450000X0.350000X-0.450000X0.350000X0.450000X-0.350000X0.450000X0*%
%ADD12RoundRect,0.250000X0.350000X0.450000X-0.350000X0.450000X-0.350000X-0.450000X0.350000X-0.450000X0*%
%ADD13RoundRect,0.150000X0.587500X0.150000X-0.587500X0.150000X-0.587500X-0.150000X0.587500X-0.150000X0*%
%ADD14RoundRect,0.150000X-0.825000X-0.150000X0.825000X-0.150000X0.825000X0.150000X-0.825000X0.150000X0*%
%ADD15C,1.676400*%
%ADD16RoundRect,0.150000X0.825000X0.150000X-0.825000X0.150000X-0.825000X-0.150000X0.825000X-0.150000X0*%
%ADD17RoundRect,0.250000X-0.337500X-0.475000X0.337500X-0.475000X0.337500X0.475000X-0.337500X0.475000X0*%
%ADD18R,1.800000X1.800000*%
%ADD19C,1.800000*%
%ADD20C,1.650000*%
%ADD21C,2.200000*%
%ADD22RoundRect,0.250000X0.600000X-0.600000X0.600000X0.600000X-0.600000X0.600000X-0.600000X-0.600000X0*%
%ADD23C,1.700000*%
G04 APERTURE END LIST*
D10*
%TO.C,C4*%
X118110000Y-76729500D03*
X118110000Y-74654500D03*
%TD*%
D11*
%TO.C,R11*%
X119015000Y-91440000D03*
X121015000Y-91440000D03*
%TD*%
%TO.C,R13*%
X119015000Y-93971480D03*
X121015000Y-93971480D03*
%TD*%
D12*
%TO.C,R28*%
X142960600Y-82702400D03*
X140960600Y-82702400D03*
%TD*%
D11*
%TO.C,R21*%
X119015000Y-104140000D03*
X121015000Y-104140000D03*
%TD*%
%TO.C,R6*%
X119015000Y-83820000D03*
X121015000Y-83820000D03*
%TD*%
%TO.C,R17*%
X119015000Y-99060000D03*
X121015000Y-99060000D03*
%TD*%
D13*
%TO.C,Q1*%
X131112500Y-84770000D03*
X131112500Y-82870000D03*
X129237500Y-83820000D03*
%TD*%
%TO.C,Q5*%
X131112500Y-92390000D03*
X131112500Y-90490000D03*
X129237500Y-91440000D03*
%TD*%
D11*
%TO.C,R5*%
X123460000Y-81280000D03*
X125460000Y-81280000D03*
%TD*%
%TO.C,R15*%
X119015000Y-96511480D03*
X121015000Y-96511480D03*
%TD*%
D14*
%TO.C,U2*%
X141390600Y-86969600D03*
X141390600Y-88239600D03*
X141390600Y-89509600D03*
X141390600Y-90779600D03*
X141390600Y-92049600D03*
X141390600Y-93319600D03*
X141390600Y-94589600D03*
X141390600Y-95859600D03*
X146340600Y-95859600D03*
X146340600Y-94589600D03*
X146340600Y-93319600D03*
X146340600Y-92049600D03*
X146340600Y-90779600D03*
X146340600Y-89509600D03*
X146340600Y-88239600D03*
X146340600Y-86969600D03*
%TD*%
D12*
%TO.C,R26*%
X170418000Y-96520000D03*
X168418000Y-96520000D03*
%TD*%
D11*
%TO.C,R12*%
X123460000Y-91440000D03*
X125460000Y-91440000D03*
%TD*%
%TO.C,R14*%
X123460000Y-93971480D03*
X125460000Y-93971480D03*
%TD*%
D10*
%TO.C,C5*%
X113461800Y-104136100D03*
X113461800Y-102061100D03*
%TD*%
D15*
%TO.C,U3*%
X121181480Y-109144918D03*
X121181480Y-106604918D03*
X118641480Y-109144918D03*
X118641480Y-106604918D03*
X164361480Y-91364918D03*
X126261480Y-73584918D03*
X126261480Y-76124918D03*
X128801480Y-73584918D03*
X128801480Y-76124918D03*
X131341480Y-73584918D03*
X131341480Y-76124918D03*
X133881480Y-73584918D03*
X133881480Y-76124918D03*
X136421480Y-73584918D03*
X136421480Y-76124918D03*
X138961480Y-73584918D03*
X138961480Y-76124918D03*
X141501480Y-73584918D03*
X141501480Y-76124918D03*
X144041480Y-73584918D03*
X144041480Y-76124918D03*
X123721480Y-106604918D03*
X128801480Y-106604918D03*
X128801480Y-109144918D03*
X131341480Y-106604918D03*
X131341480Y-109144918D03*
X133881480Y-106604918D03*
X133881480Y-109144918D03*
X136421480Y-106604918D03*
X136421480Y-109144918D03*
X138961480Y-106604918D03*
X138961480Y-109144918D03*
X141501480Y-106604918D03*
X141501480Y-109144918D03*
X144041480Y-106604918D03*
X144041480Y-109144918D03*
X146581480Y-106604918D03*
X146581480Y-109144918D03*
X149121480Y-106604918D03*
X149121480Y-109144918D03*
X151661480Y-106604918D03*
X151661480Y-109144918D03*
X154201480Y-106604918D03*
X154201480Y-109144918D03*
X156741480Y-106604918D03*
X156741480Y-109144918D03*
X159281480Y-106604918D03*
X159281480Y-109144918D03*
X161821480Y-106604918D03*
X161821480Y-109144918D03*
X164361480Y-106604918D03*
X164361480Y-109144918D03*
X146581480Y-73584918D03*
X146581480Y-76124918D03*
X149121480Y-73584918D03*
X149121480Y-76124918D03*
X151661480Y-73584918D03*
X151661480Y-76124918D03*
X154201480Y-73584918D03*
X154201480Y-76124918D03*
X156741480Y-73584918D03*
X156741480Y-76124918D03*
X159281480Y-73584918D03*
X159281480Y-76124918D03*
X161821480Y-73584918D03*
X161821480Y-76124918D03*
X164361480Y-73584918D03*
X164361480Y-76124918D03*
X164361480Y-78664918D03*
X161821480Y-78664918D03*
X164361480Y-81204918D03*
X161821480Y-81204918D03*
X164361480Y-83744918D03*
X161821480Y-83744918D03*
X116101480Y-109144918D03*
X116101480Y-106604918D03*
X164361480Y-96444918D03*
X161821480Y-91364918D03*
X164361480Y-93904918D03*
X161821480Y-96444918D03*
X123721480Y-109144918D03*
X126261480Y-106604918D03*
X161821480Y-93904918D03*
X126261480Y-109144918D03*
X113561480Y-109144918D03*
X113561480Y-106604918D03*
%TD*%
D12*
%TO.C,R30*%
X142960600Y-78765400D03*
X140960600Y-78765400D03*
%TD*%
D16*
%TO.C,U1*%
X155129000Y-88646000D03*
X155129000Y-87376000D03*
X155129000Y-86106000D03*
X155129000Y-84836000D03*
X155129000Y-83566000D03*
X155129000Y-82296000D03*
X155129000Y-81026000D03*
X150179000Y-81026000D03*
X150179000Y-82296000D03*
X150179000Y-83566000D03*
X150179000Y-84836000D03*
X150179000Y-86106000D03*
X150179000Y-87376000D03*
X150179000Y-88646000D03*
%TD*%
D11*
%TO.C,R23*%
X123460000Y-88900000D03*
X125460000Y-88900000D03*
%TD*%
%TO.C,R16*%
X123460000Y-96511480D03*
X125460000Y-96511480D03*
%TD*%
D12*
%TO.C,R24*%
X170418000Y-78740000D03*
X168418000Y-78740000D03*
%TD*%
D11*
%TO.C,R9*%
X123460000Y-86360000D03*
X125460000Y-86360000D03*
%TD*%
%TO.C,R3*%
X123460000Y-78740000D03*
X125460000Y-78740000D03*
%TD*%
%TO.C,R19*%
X119015000Y-101600000D03*
X121015000Y-101600000D03*
%TD*%
D13*
%TO.C,Q4*%
X131112500Y-96200000D03*
X131112500Y-94300000D03*
X129237500Y-95250000D03*
%TD*%
%TO.C,Q6*%
X131112500Y-100010000D03*
X131112500Y-98110000D03*
X129237500Y-99060000D03*
%TD*%
%TO.C,Q3*%
X131112500Y-88580000D03*
X131112500Y-86680000D03*
X129237500Y-87630000D03*
%TD*%
D17*
%TO.C,C6*%
X140948500Y-84934000D03*
X143023500Y-84934000D03*
%TD*%
D11*
%TO.C,R10*%
X119015000Y-88900000D03*
X121015000Y-88900000D03*
%TD*%
%TO.C,R22*%
X123460000Y-104140000D03*
X125460000Y-104140000D03*
%TD*%
%TO.C,R2*%
X119015000Y-78740000D03*
X121015000Y-78740000D03*
%TD*%
D12*
%TO.C,R31*%
X142986000Y-103403400D03*
X140986000Y-103403400D03*
%TD*%
D11*
%TO.C,R18*%
X123460000Y-99060000D03*
X125460000Y-99060000D03*
%TD*%
D12*
%TO.C,R25*%
X170418000Y-87630000D03*
X168418000Y-87630000D03*
%TD*%
%TO.C,R27*%
X142960600Y-80746600D03*
X140960600Y-80746600D03*
%TD*%
%TO.C,R29*%
X142960600Y-101092000D03*
X140960600Y-101092000D03*
%TD*%
D17*
%TO.C,C3*%
X149838500Y-90678000D03*
X151913500Y-90678000D03*
%TD*%
D11*
%TO.C,R4*%
X119015000Y-81280000D03*
X121015000Y-81280000D03*
%TD*%
%TO.C,R20*%
X123460000Y-101600000D03*
X125460000Y-101600000D03*
%TD*%
D13*
%TO.C,Q7*%
X131112500Y-103820000D03*
X131112500Y-101920000D03*
X129237500Y-102870000D03*
%TD*%
D12*
%TO.C,R1*%
X142970000Y-98806000D03*
X140970000Y-98806000D03*
%TD*%
D13*
%TO.C,Q2*%
X131112500Y-80960000D03*
X131112500Y-79060000D03*
X129237500Y-80010000D03*
%TD*%
D11*
%TO.C,R8*%
X119015000Y-86360000D03*
X121015000Y-86360000D03*
%TD*%
%TO.C,R7*%
X123460000Y-83820000D03*
X125460000Y-83820000D03*
%TD*%
D18*
%TO.C,D3*%
X169418000Y-101224000D03*
D19*
X169418000Y-98684000D03*
%TD*%
D18*
%TO.C,D2*%
X169418000Y-92334000D03*
D19*
X169418000Y-89794000D03*
%TD*%
D18*
%TO.C,D1*%
X169423000Y-83444000D03*
D19*
X169423000Y-80904000D03*
%TD*%
D20*
%TO.C,J2*%
X134391168Y-102305000D03*
D21*
X134391168Y-81305000D03*
%TD*%
D22*
%TO.C,J1*%
X166370000Y-67945000D03*
D23*
X166370000Y-65405000D03*
X163830000Y-67945000D03*
X163830000Y-65405000D03*
X161290000Y-67945000D03*
X161290000Y-65405000D03*
X158750000Y-67945000D03*
X158750000Y-65405000D03*
X156210000Y-67945000D03*
X156210000Y-65405000D03*
X153670000Y-67945000D03*
X153670000Y-65405000D03*
X151130000Y-67945000D03*
X151130000Y-65405000D03*
X148590000Y-67945000D03*
X148590000Y-65405000D03*
X146050000Y-67945000D03*
X146050000Y-65405000D03*
X143510000Y-67945000D03*
X143510000Y-65405000D03*
X140970000Y-67945000D03*
X140970000Y-65405000D03*
X138430000Y-67945000D03*
X138430000Y-65405000D03*
X135890000Y-67945000D03*
X135890000Y-65405000D03*
X133350000Y-67945000D03*
X133350000Y-65405000D03*
X130810000Y-67945000D03*
X130810000Y-65405000D03*
X128270000Y-67945000D03*
X128270000Y-65405000D03*
X125730000Y-67945000D03*
X125730000Y-65405000D03*
X123190000Y-67945000D03*
X123190000Y-65405000D03*
X120650000Y-67945000D03*
X120650000Y-65405000D03*
X118110000Y-67945000D03*
X118110000Y-65405000D03*
%TD*%
M02*
