%TF.GenerationSoftware,KiCad,Pcbnew,(6.0.11)*%
%TF.CreationDate,2023-11-12T17:34:14-06:00*%
%TF.ProjectId,rx02-mega2560-pro,72783032-2d6d-4656-9761-323536302d70,rev?*%
%TF.SameCoordinates,Original*%
%TF.FileFunction,Legend,Bot*%
%TF.FilePolarity,Positive*%
%FSLAX46Y46*%
G04 Gerber Fmt 4.6, Leading zero omitted, Abs format (unit mm)*
G04 Created by KiCad (PCBNEW (6.0.11)) date 2023-11-12 17:34:14*
%MOMM*%
%LPD*%
G01*
G04 APERTURE LIST*
%ADD10C,0.150000*%
%ADD11C,0.254000*%
%ADD12C,0.120000*%
%ADD13C,0.500000*%
G04 APERTURE END LIST*
D10*
X161006847Y-61072780D02*
X161006847Y-61787066D01*
X161054466Y-61929923D01*
X161149704Y-62025161D01*
X161292561Y-62072780D01*
X161387800Y-62072780D01*
X160054466Y-62072780D02*
X160530657Y-62072780D01*
X160530657Y-61072780D01*
X159149704Y-61977542D02*
X159197323Y-62025161D01*
X159340180Y-62072780D01*
X159435419Y-62072780D01*
X159578276Y-62025161D01*
X159673514Y-61929923D01*
X159721133Y-61834685D01*
X159768752Y-61644209D01*
X159768752Y-61501352D01*
X159721133Y-61310876D01*
X159673514Y-61215638D01*
X159578276Y-61120400D01*
X159435419Y-61072780D01*
X159340180Y-61072780D01*
X159197323Y-61120400D01*
X159149704Y-61168019D01*
X158435419Y-61072780D02*
X158435419Y-61787066D01*
X158483038Y-61929923D01*
X158578276Y-62025161D01*
X158721133Y-62072780D01*
X158816371Y-62072780D01*
X157483038Y-62072780D02*
X157959228Y-62072780D01*
X157959228Y-61072780D01*
X156578276Y-61977542D02*
X156625895Y-62025161D01*
X156768752Y-62072780D01*
X156863990Y-62072780D01*
X157006847Y-62025161D01*
X157102085Y-61929923D01*
X157149704Y-61834685D01*
X157197323Y-61644209D01*
X157197323Y-61501352D01*
X157149704Y-61310876D01*
X157102085Y-61215638D01*
X157006847Y-61120400D01*
X156863990Y-61072780D01*
X156768752Y-61072780D01*
X156625895Y-61120400D01*
X156578276Y-61168019D01*
X155863990Y-61072780D02*
X155863990Y-61787066D01*
X155911609Y-61929923D01*
X156006847Y-62025161D01*
X156149704Y-62072780D01*
X156244942Y-62072780D01*
X154911609Y-62072780D02*
X155387800Y-62072780D01*
X155387800Y-61072780D01*
X154006847Y-61977542D02*
X154054466Y-62025161D01*
X154197323Y-62072780D01*
X154292561Y-62072780D01*
X154435419Y-62025161D01*
X154530657Y-61929923D01*
X154578276Y-61834685D01*
X154625895Y-61644209D01*
X154625895Y-61501352D01*
X154578276Y-61310876D01*
X154530657Y-61215638D01*
X154435419Y-61120400D01*
X154292561Y-61072780D01*
X154197323Y-61072780D01*
X154054466Y-61120400D01*
X154006847Y-61168019D01*
X153292561Y-61072780D02*
X153292561Y-61787066D01*
X153340180Y-61929923D01*
X153435419Y-62025161D01*
X153578276Y-62072780D01*
X153673514Y-62072780D01*
X152340180Y-62072780D02*
X152816371Y-62072780D01*
X152816371Y-61072780D01*
X151435419Y-61977542D02*
X151483038Y-62025161D01*
X151625895Y-62072780D01*
X151721133Y-62072780D01*
X151863990Y-62025161D01*
X151959228Y-61929923D01*
X152006847Y-61834685D01*
X152054466Y-61644209D01*
X152054466Y-61501352D01*
X152006847Y-61310876D01*
X151959228Y-61215638D01*
X151863990Y-61120400D01*
X151721133Y-61072780D01*
X151625895Y-61072780D01*
X151483038Y-61120400D01*
X151435419Y-61168019D01*
%TO.C,D3*%
X167076380Y-99210904D02*
X166076380Y-99210904D01*
X166076380Y-99449000D01*
X166124000Y-99591857D01*
X166219238Y-99687095D01*
X166314476Y-99734714D01*
X166504952Y-99782333D01*
X166647809Y-99782333D01*
X166838285Y-99734714D01*
X166933523Y-99687095D01*
X167028761Y-99591857D01*
X167076380Y-99449000D01*
X167076380Y-99210904D01*
X166076380Y-100115666D02*
X166076380Y-100734714D01*
X166457333Y-100401380D01*
X166457333Y-100544238D01*
X166504952Y-100639476D01*
X166552571Y-100687095D01*
X166647809Y-100734714D01*
X166885904Y-100734714D01*
X166981142Y-100687095D01*
X167028761Y-100639476D01*
X167076380Y-100544238D01*
X167076380Y-100258523D01*
X167028761Y-100163285D01*
X166981142Y-100115666D01*
X172492942Y-97095266D02*
X172540561Y-97047647D01*
X172588180Y-96904790D01*
X172588180Y-96809552D01*
X172540561Y-96666695D01*
X172445323Y-96571457D01*
X172350085Y-96523838D01*
X172159609Y-96476219D01*
X172016752Y-96476219D01*
X171826276Y-96523838D01*
X171731038Y-96571457D01*
X171635800Y-96666695D01*
X171588180Y-96809552D01*
X171588180Y-96904790D01*
X171635800Y-97047647D01*
X171683419Y-97095266D01*
X172588180Y-97666695D02*
X172540561Y-97571457D01*
X172492942Y-97523838D01*
X172397704Y-97476219D01*
X172111990Y-97476219D01*
X172016752Y-97523838D01*
X171969133Y-97571457D01*
X171921514Y-97666695D01*
X171921514Y-97809552D01*
X171969133Y-97904790D01*
X172016752Y-97952409D01*
X172111990Y-98000028D01*
X172397704Y-98000028D01*
X172492942Y-97952409D01*
X172540561Y-97904790D01*
X172588180Y-97809552D01*
X172588180Y-97666695D01*
X172588180Y-98428600D02*
X171921514Y-98428600D01*
X172016752Y-98428600D02*
X171969133Y-98476219D01*
X171921514Y-98571457D01*
X171921514Y-98714314D01*
X171969133Y-98809552D01*
X172064371Y-98857171D01*
X172588180Y-98857171D01*
X172064371Y-98857171D02*
X171969133Y-98904790D01*
X171921514Y-99000028D01*
X171921514Y-99142885D01*
X171969133Y-99238123D01*
X172064371Y-99285742D01*
X172588180Y-99285742D01*
X172588180Y-99761933D02*
X171921514Y-99761933D01*
X172016752Y-99761933D02*
X171969133Y-99809552D01*
X171921514Y-99904790D01*
X171921514Y-100047647D01*
X171969133Y-100142885D01*
X172064371Y-100190504D01*
X172588180Y-100190504D01*
X172064371Y-100190504D02*
X171969133Y-100238123D01*
X171921514Y-100333361D01*
X171921514Y-100476219D01*
X171969133Y-100571457D01*
X172064371Y-100619076D01*
X172588180Y-100619076D01*
X172588180Y-101523838D02*
X172064371Y-101523838D01*
X171969133Y-101476219D01*
X171921514Y-101380980D01*
X171921514Y-101190504D01*
X171969133Y-101095266D01*
X172540561Y-101523838D02*
X172588180Y-101428600D01*
X172588180Y-101190504D01*
X172540561Y-101095266D01*
X172445323Y-101047647D01*
X172350085Y-101047647D01*
X172254847Y-101095266D01*
X172207228Y-101190504D01*
X172207228Y-101428600D01*
X172159609Y-101523838D01*
X171921514Y-102000028D02*
X172588180Y-102000028D01*
X172016752Y-102000028D02*
X171969133Y-102047647D01*
X171921514Y-102142885D01*
X171921514Y-102285742D01*
X171969133Y-102380980D01*
X172064371Y-102428600D01*
X172588180Y-102428600D01*
X172588180Y-103333361D02*
X171588180Y-103333361D01*
X172540561Y-103333361D02*
X172588180Y-103238123D01*
X172588180Y-103047647D01*
X172540561Y-102952409D01*
X172492942Y-102904790D01*
X172397704Y-102857171D01*
X172111990Y-102857171D01*
X172016752Y-102904790D01*
X171969133Y-102952409D01*
X171921514Y-103047647D01*
X171921514Y-103238123D01*
X171969133Y-103333361D01*
%TO.C,R32*%
X113102380Y-72001142D02*
X112626190Y-71667809D01*
X113102380Y-71429714D02*
X112102380Y-71429714D01*
X112102380Y-71810666D01*
X112150000Y-71905904D01*
X112197619Y-71953523D01*
X112292857Y-72001142D01*
X112435714Y-72001142D01*
X112530952Y-71953523D01*
X112578571Y-71905904D01*
X112626190Y-71810666D01*
X112626190Y-71429714D01*
X112102380Y-72334476D02*
X112102380Y-72953523D01*
X112483333Y-72620190D01*
X112483333Y-72763047D01*
X112530952Y-72858285D01*
X112578571Y-72905904D01*
X112673809Y-72953523D01*
X112911904Y-72953523D01*
X113007142Y-72905904D01*
X113054761Y-72858285D01*
X113102380Y-72763047D01*
X113102380Y-72477333D01*
X113054761Y-72382095D01*
X113007142Y-72334476D01*
X112197619Y-73334476D02*
X112150000Y-73382095D01*
X112102380Y-73477333D01*
X112102380Y-73715428D01*
X112150000Y-73810666D01*
X112197619Y-73858285D01*
X112292857Y-73905904D01*
X112388095Y-73905904D01*
X112530952Y-73858285D01*
X113102380Y-73286857D01*
X113102380Y-73905904D01*
%TO.C,D2*%
X167076380Y-90325904D02*
X166076380Y-90325904D01*
X166076380Y-90564000D01*
X166124000Y-90706857D01*
X166219238Y-90802095D01*
X166314476Y-90849714D01*
X166504952Y-90897333D01*
X166647809Y-90897333D01*
X166838285Y-90849714D01*
X166933523Y-90802095D01*
X167028761Y-90706857D01*
X167076380Y-90564000D01*
X167076380Y-90325904D01*
X166171619Y-91278285D02*
X166124000Y-91325904D01*
X166076380Y-91421142D01*
X166076380Y-91659238D01*
X166124000Y-91754476D01*
X166171619Y-91802095D01*
X166266857Y-91849714D01*
X166362095Y-91849714D01*
X166504952Y-91802095D01*
X167076380Y-91230666D01*
X167076380Y-91849714D01*
X172492942Y-90154238D02*
X172540561Y-90106619D01*
X172588180Y-89963761D01*
X172588180Y-89868523D01*
X172540561Y-89725666D01*
X172445323Y-89630428D01*
X172350085Y-89582809D01*
X172159609Y-89535190D01*
X172016752Y-89535190D01*
X171826276Y-89582809D01*
X171731038Y-89630428D01*
X171635800Y-89725666D01*
X171588180Y-89868523D01*
X171588180Y-89963761D01*
X171635800Y-90106619D01*
X171683419Y-90154238D01*
X172588180Y-91011380D02*
X172064371Y-91011380D01*
X171969133Y-90963761D01*
X171921514Y-90868523D01*
X171921514Y-90678047D01*
X171969133Y-90582809D01*
X172540561Y-91011380D02*
X172588180Y-90916142D01*
X172588180Y-90678047D01*
X172540561Y-90582809D01*
X172445323Y-90535190D01*
X172350085Y-90535190D01*
X172254847Y-90582809D01*
X172207228Y-90678047D01*
X172207228Y-90916142D01*
X172159609Y-91011380D01*
X172588180Y-91487571D02*
X171921514Y-91487571D01*
X172111990Y-91487571D02*
X172016752Y-91535190D01*
X171969133Y-91582809D01*
X171921514Y-91678047D01*
X171921514Y-91773285D01*
X172588180Y-92535190D02*
X171588180Y-92535190D01*
X172540561Y-92535190D02*
X172588180Y-92439952D01*
X172588180Y-92249476D01*
X172540561Y-92154238D01*
X172492942Y-92106619D01*
X172397704Y-92059000D01*
X172111990Y-92059000D01*
X172016752Y-92106619D01*
X171969133Y-92154238D01*
X171921514Y-92249476D01*
X171921514Y-92439952D01*
X171969133Y-92535190D01*
%TO.C,C7*%
X142914666Y-94147142D02*
X142962285Y-94194761D01*
X143105142Y-94242380D01*
X143200380Y-94242380D01*
X143343238Y-94194761D01*
X143438476Y-94099523D01*
X143486095Y-94004285D01*
X143533714Y-93813809D01*
X143533714Y-93670952D01*
X143486095Y-93480476D01*
X143438476Y-93385238D01*
X143343238Y-93290000D01*
X143200380Y-93242380D01*
X143105142Y-93242380D01*
X142962285Y-93290000D01*
X142914666Y-93337619D01*
X142581333Y-93242380D02*
X141914666Y-93242380D01*
X142343238Y-94242380D01*
%TO.C,C2*%
X120562666Y-77463142D02*
X120610285Y-77510761D01*
X120753142Y-77558380D01*
X120848380Y-77558380D01*
X120991238Y-77510761D01*
X121086476Y-77415523D01*
X121134095Y-77320285D01*
X121181714Y-77129809D01*
X121181714Y-76986952D01*
X121134095Y-76796476D01*
X121086476Y-76701238D01*
X120991238Y-76606000D01*
X120848380Y-76558380D01*
X120753142Y-76558380D01*
X120610285Y-76606000D01*
X120562666Y-76653619D01*
X120181714Y-76653619D02*
X120134095Y-76606000D01*
X120038857Y-76558380D01*
X119800761Y-76558380D01*
X119705523Y-76606000D01*
X119657904Y-76653619D01*
X119610285Y-76748857D01*
X119610285Y-76844095D01*
X119657904Y-76986952D01*
X120229333Y-77558380D01*
X119610285Y-77558380D01*
%TO.C,D1*%
X167076380Y-81435904D02*
X166076380Y-81435904D01*
X166076380Y-81674000D01*
X166124000Y-81816857D01*
X166219238Y-81912095D01*
X166314476Y-81959714D01*
X166504952Y-82007333D01*
X166647809Y-82007333D01*
X166838285Y-81959714D01*
X166933523Y-81912095D01*
X167028761Y-81816857D01*
X167076380Y-81674000D01*
X167076380Y-81435904D01*
X167076380Y-82959714D02*
X167076380Y-82388285D01*
X167076380Y-82674000D02*
X166076380Y-82674000D01*
X166219238Y-82578761D01*
X166314476Y-82483523D01*
X166362095Y-82388285D01*
X172588180Y-81167409D02*
X171588180Y-81167409D01*
X171921514Y-81643600D02*
X172588180Y-81643600D01*
X172016752Y-81643600D02*
X171969133Y-81691219D01*
X171921514Y-81786457D01*
X171921514Y-81929314D01*
X171969133Y-82024552D01*
X172064371Y-82072171D01*
X172588180Y-82072171D01*
X172588180Y-82548361D02*
X171921514Y-82548361D01*
X171588180Y-82548361D02*
X171635800Y-82500742D01*
X171683419Y-82548361D01*
X171635800Y-82595980D01*
X171588180Y-82548361D01*
X171683419Y-82548361D01*
X171921514Y-82881695D02*
X171921514Y-83262647D01*
X171588180Y-83024552D02*
X172445323Y-83024552D01*
X172540561Y-83072171D01*
X172588180Y-83167409D01*
X172588180Y-83262647D01*
D11*
%TO.C,J2*%
X130876691Y-91140336D02*
X131783834Y-91140336D01*
X131965263Y-91079860D01*
X132086215Y-90958908D01*
X132146691Y-90777479D01*
X132146691Y-90656527D01*
X130997644Y-91684622D02*
X130937168Y-91745098D01*
X130876691Y-91866050D01*
X130876691Y-92168431D01*
X130937168Y-92289384D01*
X130997644Y-92349860D01*
X131118596Y-92410336D01*
X131239548Y-92410336D01*
X131420977Y-92349860D01*
X132146691Y-91624146D01*
X132146691Y-92410336D01*
D10*
%TO.C,S1*%
X167572761Y-73533095D02*
X167620380Y-73675952D01*
X167620380Y-73914047D01*
X167572761Y-74009285D01*
X167525142Y-74056904D01*
X167429904Y-74104523D01*
X167334666Y-74104523D01*
X167239428Y-74056904D01*
X167191809Y-74009285D01*
X167144190Y-73914047D01*
X167096571Y-73723571D01*
X167048952Y-73628333D01*
X167001333Y-73580714D01*
X166906095Y-73533095D01*
X166810857Y-73533095D01*
X166715619Y-73580714D01*
X166668000Y-73628333D01*
X166620380Y-73723571D01*
X166620380Y-73961666D01*
X166668000Y-74104523D01*
X167620380Y-75056904D02*
X167620380Y-74485476D01*
X167620380Y-74771190D02*
X166620380Y-74771190D01*
X166763238Y-74675952D01*
X166858476Y-74580714D01*
X166906095Y-74485476D01*
X172588180Y-72936266D02*
X172111990Y-72602933D01*
X172588180Y-72364838D02*
X171588180Y-72364838D01*
X171588180Y-72745790D01*
X171635800Y-72841028D01*
X171683419Y-72888647D01*
X171778657Y-72936266D01*
X171921514Y-72936266D01*
X172016752Y-72888647D01*
X172064371Y-72841028D01*
X172111990Y-72745790D01*
X172111990Y-72364838D01*
X172540561Y-73745790D02*
X172588180Y-73650552D01*
X172588180Y-73460076D01*
X172540561Y-73364838D01*
X172445323Y-73317219D01*
X172064371Y-73317219D01*
X171969133Y-73364838D01*
X171921514Y-73460076D01*
X171921514Y-73650552D01*
X171969133Y-73745790D01*
X172064371Y-73793409D01*
X172159609Y-73793409D01*
X172254847Y-73317219D01*
X172588180Y-74221980D02*
X171588180Y-74221980D01*
X171921514Y-74698171D02*
X172588180Y-74698171D01*
X172016752Y-74698171D02*
X171969133Y-74745790D01*
X171921514Y-74841028D01*
X171921514Y-74983885D01*
X171969133Y-75079123D01*
X172064371Y-75126742D01*
X172588180Y-75126742D01*
X172588180Y-75602933D02*
X171921514Y-75602933D01*
X171588180Y-75602933D02*
X171635800Y-75555314D01*
X171683419Y-75602933D01*
X171635800Y-75650552D01*
X171588180Y-75602933D01*
X171683419Y-75602933D01*
X171921514Y-75936266D02*
X171921514Y-76317219D01*
X171588180Y-76079123D02*
X172445323Y-76079123D01*
X172540561Y-76126742D01*
X172588180Y-76221980D01*
X172588180Y-76317219D01*
%TO.C,C1*%
X152917942Y-94549933D02*
X152965561Y-94502314D01*
X153013180Y-94359457D01*
X153013180Y-94264219D01*
X152965561Y-94121361D01*
X152870323Y-94026123D01*
X152775085Y-93978504D01*
X152584609Y-93930885D01*
X152441752Y-93930885D01*
X152251276Y-93978504D01*
X152156038Y-94026123D01*
X152060800Y-94121361D01*
X152013180Y-94264219D01*
X152013180Y-94359457D01*
X152060800Y-94502314D01*
X152108419Y-94549933D01*
X153013180Y-95502314D02*
X153013180Y-94930885D01*
X153013180Y-95216600D02*
X152013180Y-95216600D01*
X152156038Y-95121361D01*
X152251276Y-95026123D01*
X152298895Y-94930885D01*
%TO.C,D4*%
X113102380Y-66444904D02*
X112102380Y-66444904D01*
X112102380Y-66683000D01*
X112150000Y-66825857D01*
X112245238Y-66921095D01*
X112340476Y-66968714D01*
X112530952Y-67016333D01*
X112673809Y-67016333D01*
X112864285Y-66968714D01*
X112959523Y-66921095D01*
X113054761Y-66825857D01*
X113102380Y-66683000D01*
X113102380Y-66444904D01*
X112435714Y-67873476D02*
X113102380Y-67873476D01*
X112054761Y-67635380D02*
X112769047Y-67397285D01*
X112769047Y-68016333D01*
%TO.C,J1*%
X170818133Y-64069980D02*
X170818133Y-64784266D01*
X170865752Y-64927123D01*
X170960990Y-65022361D01*
X171103847Y-65069980D01*
X171199085Y-65069980D01*
X169818133Y-65069980D02*
X170389561Y-65069980D01*
X170103847Y-65069980D02*
X170103847Y-64069980D01*
X170199085Y-64212838D01*
X170294323Y-64308076D01*
X170389561Y-64355695D01*
%TO.C,S2*%
X167572761Y-107188095D02*
X167620380Y-107330952D01*
X167620380Y-107569047D01*
X167572761Y-107664285D01*
X167525142Y-107711904D01*
X167429904Y-107759523D01*
X167334666Y-107759523D01*
X167239428Y-107711904D01*
X167191809Y-107664285D01*
X167144190Y-107569047D01*
X167096571Y-107378571D01*
X167048952Y-107283333D01*
X167001333Y-107235714D01*
X166906095Y-107188095D01*
X166810857Y-107188095D01*
X166715619Y-107235714D01*
X166668000Y-107283333D01*
X166620380Y-107378571D01*
X166620380Y-107616666D01*
X166668000Y-107759523D01*
X166715619Y-108140476D02*
X166668000Y-108188095D01*
X166620380Y-108283333D01*
X166620380Y-108521428D01*
X166668000Y-108616666D01*
X166715619Y-108664285D01*
X166810857Y-108711904D01*
X166906095Y-108711904D01*
X167048952Y-108664285D01*
X167620380Y-108092857D01*
X167620380Y-108711904D01*
X172588180Y-106686504D02*
X172111990Y-106353171D01*
X172588180Y-106115076D02*
X171588180Y-106115076D01*
X171588180Y-106496028D01*
X171635800Y-106591266D01*
X171683419Y-106638885D01*
X171778657Y-106686504D01*
X171921514Y-106686504D01*
X172016752Y-106638885D01*
X172064371Y-106591266D01*
X172111990Y-106496028D01*
X172111990Y-106115076D01*
X172540561Y-107496028D02*
X172588180Y-107400790D01*
X172588180Y-107210314D01*
X172540561Y-107115076D01*
X172445323Y-107067457D01*
X172064371Y-107067457D01*
X171969133Y-107115076D01*
X171921514Y-107210314D01*
X171921514Y-107400790D01*
X171969133Y-107496028D01*
X172064371Y-107543647D01*
X172159609Y-107543647D01*
X172254847Y-107067457D01*
X172540561Y-107924600D02*
X172588180Y-108019838D01*
X172588180Y-108210314D01*
X172540561Y-108305552D01*
X172445323Y-108353171D01*
X172397704Y-108353171D01*
X172302466Y-108305552D01*
X172254847Y-108210314D01*
X172254847Y-108067457D01*
X172207228Y-107972219D01*
X172111990Y-107924600D01*
X172064371Y-107924600D01*
X171969133Y-107972219D01*
X171921514Y-108067457D01*
X171921514Y-108210314D01*
X171969133Y-108305552D01*
X172540561Y-109162695D02*
X172588180Y-109067457D01*
X172588180Y-108876980D01*
X172540561Y-108781742D01*
X172445323Y-108734123D01*
X172064371Y-108734123D01*
X171969133Y-108781742D01*
X171921514Y-108876980D01*
X171921514Y-109067457D01*
X171969133Y-109162695D01*
X172064371Y-109210314D01*
X172159609Y-109210314D01*
X172254847Y-108734123D01*
X171921514Y-109496028D02*
X171921514Y-109876980D01*
X171588180Y-109638885D02*
X172445323Y-109638885D01*
X172540561Y-109686504D01*
X172588180Y-109781742D01*
X172588180Y-109876980D01*
D12*
%TO.C,D3*%
X168338000Y-101514000D02*
X168182000Y-101514000D01*
X170654000Y-101514000D02*
X170498000Y-101514000D01*
X170498000Y-100994961D02*
G75*
G03*
X170497837Y-98912870I-1080000J1040961D01*
G01*
X168339392Y-98281665D02*
G75*
G03*
X168182484Y-101514000I1078608J-1672335D01*
G01*
X168338163Y-98912870D02*
G75*
G03*
X168338000Y-100994961I1079837J-1041130D01*
G01*
X170653516Y-101514000D02*
G75*
G03*
X170496608Y-98281665I-1235516J1560000D01*
G01*
%TO.C,R32*%
X113565000Y-72416936D02*
X113565000Y-72871064D01*
X115035000Y-72416936D02*
X115035000Y-72871064D01*
%TO.C,D2*%
X170654000Y-92624000D02*
X170498000Y-92624000D01*
X168338000Y-92624000D02*
X168182000Y-92624000D01*
X170498000Y-92104961D02*
G75*
G03*
X170497837Y-90022870I-1080000J1040961D01*
G01*
X168338163Y-90022870D02*
G75*
G03*
X168338000Y-92104961I1079837J-1041130D01*
G01*
X168339392Y-89391665D02*
G75*
G03*
X168182484Y-92624000I1078608J-1672335D01*
G01*
X170653516Y-92624000D02*
G75*
G03*
X170496608Y-89391665I-1235516J1560000D01*
G01*
%TO.C,C7*%
X140113000Y-92950000D02*
X140113000Y-89930000D01*
X144498000Y-92950000D02*
X140113000Y-92950000D01*
X140113000Y-89930000D02*
X144498000Y-89930000D01*
%TO.C,C2*%
X116771000Y-75091000D02*
X117396000Y-75091000D01*
X123156000Y-76166000D02*
X123156000Y-74466000D01*
X117636000Y-71710437D02*
X118700437Y-70646000D01*
X117083500Y-75403500D02*
X117083500Y-74778500D01*
X123156000Y-70646000D02*
X123156000Y-72346000D01*
X117636000Y-75101563D02*
X117636000Y-74466000D01*
X117636000Y-75101563D02*
X118700437Y-76166000D01*
X118700437Y-76166000D02*
X123156000Y-76166000D01*
X118700437Y-70646000D02*
X123156000Y-70646000D01*
X117636000Y-71710437D02*
X117636000Y-72346000D01*
%TO.C,D1*%
X170659000Y-83734000D02*
X170503000Y-83734000D01*
X168343000Y-83734000D02*
X168187000Y-83734000D01*
X168343163Y-81132870D02*
G75*
G03*
X168343000Y-83214961I1079837J-1041130D01*
G01*
X170658516Y-83734000D02*
G75*
G03*
X170501608Y-80501665I-1235516J1560000D01*
G01*
X168344392Y-80501665D02*
G75*
G03*
X168187484Y-83734000I1078608J-1672335D01*
G01*
X170503000Y-83214961D02*
G75*
G03*
X170502837Y-81132870I-1080000J1040961D01*
G01*
D11*
%TO.C,J2*%
X136741168Y-77505000D02*
X115527498Y-77505000D01*
X133154168Y-104105000D02*
X115527498Y-104105000D01*
X111741168Y-104105000D02*
X111741168Y-77505000D01*
D13*
X139087833Y-83645335D02*
G75*
G03*
X139087833Y-83645335I-209335J0D01*
G01*
D12*
%TO.C,S1*%
X167848000Y-76365000D02*
X168148000Y-76365000D01*
X167848000Y-72225000D02*
X167848000Y-76365000D01*
X168148000Y-72225000D02*
X167848000Y-72225000D01*
X170988000Y-72225000D02*
X170688000Y-72225000D01*
X170988000Y-76365000D02*
X170988000Y-72225000D01*
X170688000Y-76365000D02*
X170988000Y-76365000D01*
%TO.C,C1*%
X157956363Y-91956600D02*
X159020800Y-93021037D01*
X153500800Y-93021037D02*
X153500800Y-97476600D01*
X159020800Y-97476600D02*
X157320800Y-97476600D01*
X154263300Y-91404100D02*
X154888300Y-91404100D01*
X159020800Y-93021037D02*
X159020800Y-97476600D01*
X154565237Y-91956600D02*
X155200800Y-91956600D01*
X157956363Y-91956600D02*
X157320800Y-91956600D01*
X154565237Y-91956600D02*
X153500800Y-93021037D01*
X154575800Y-91091600D02*
X154575800Y-91716600D01*
X153500800Y-97476600D02*
X155200800Y-97476600D01*
%TO.C,D4*%
X115260000Y-65323000D02*
X115260000Y-68183000D01*
X113340000Y-65323000D02*
X115260000Y-65323000D01*
X113340000Y-68183000D02*
X113340000Y-65323000D01*
%TO.C,J1*%
X166870000Y-70295000D02*
X165870000Y-70295000D01*
X165870000Y-70295000D02*
X166370000Y-69295000D01*
X166370000Y-69295000D02*
X166870000Y-70295000D01*
X171580000Y-63675000D02*
X171580000Y-54555000D01*
X112900000Y-63675000D02*
X171580000Y-63675000D01*
X140190000Y-63675000D02*
X140190000Y-54555000D01*
X144290000Y-63675000D02*
X144290000Y-54555000D01*
X112900000Y-54555000D02*
X112900000Y-63675000D01*
X171580000Y-54555000D02*
X112900000Y-54555000D01*
%TO.C,S2*%
X170988000Y-105880000D02*
X170688000Y-105880000D01*
X167848000Y-110020000D02*
X168148000Y-110020000D01*
X170688000Y-110020000D02*
X170988000Y-110020000D01*
X167848000Y-105880000D02*
X167848000Y-110020000D01*
X170988000Y-110020000D02*
X170988000Y-105880000D01*
X168148000Y-105880000D02*
X167848000Y-105880000D01*
%TD*%
M02*
