M48
; DRILL file {KiCad (6.0.11)} date Tue Mar 14 22:18:52 2023
; FORMAT={-:-/ absolute / inch / decimal}
; #@! TF.CreationDate,2023-03-14T22:18:52-05:00
; #@! TF.GenerationSoftware,Kicad,Pcbnew,(6.0.11)
; #@! TF.FileFunction,MixedPlating,1,2
FMAT,2
INCH
; #@! TA.AperFunction,Plated,PTH,ViaDrill
T1C0.0157
; #@! TA.AperFunction,Plated,PTH,ComponentDrill
T2C0.0315
; #@! TA.AperFunction,Plated,PTH,ComponentDrill
T3C0.0354
; #@! TA.AperFunction,Plated,PTH,ComponentDrill
T4C0.0394
; #@! TA.AperFunction,Plated,PTH,ComponentDrill
T5C0.0433
; #@! TA.AperFunction,Plated,PTH,ComponentDrill
T6C0.0630
%
G90
G05
T1
X4.457Y-3.957
X4.634Y-3.8
X4.635Y-3.1
X4.635Y-3.2
X4.635Y-3.3
X4.635Y-3.4
X4.635Y-3.5
X4.635Y-3.699
X4.635Y-3.9
X4.635Y-4.0
X4.635Y-4.099
X4.636Y-3.599
X4.648Y-2.745
X4.8Y-2.751
X4.859Y-2.997
X5.007Y-3.952
X5.008Y-3.351
X5.017Y-3.549
X5.061Y-3.098
X5.063Y-3.211
X5.1Y-2.749
X5.117Y-4.135
X5.121Y-3.053
X5.26Y-3.95
X5.287Y-3.695
X5.47Y-3.41
X5.47Y-3.7
X5.47Y-3.89
X5.47Y-3.96
X5.47Y-4.01
X5.48Y-3.143
X5.49Y-3.36
X5.633Y-3.424
X5.659Y-3.511
X5.663Y-3.734
X5.7Y-3.99
X5.72Y-3.053
X5.758Y-3.318
X5.866Y-3.735
X5.919Y-4.099
X5.971Y-3.643
X6.122Y-3.14
X6.2Y-4.1
X6.21Y-3.27
X6.21Y-3.38
X6.4702Y-3.4802
X6.52Y-3.42
T2
X4.4709Y-4.197
X4.4709Y-4.297
X4.5709Y-4.197
X4.5709Y-4.297
X4.6709Y-4.197
X4.6709Y-4.297
X4.7709Y-4.197
X4.7709Y-4.297
X4.8709Y-4.197
X4.8709Y-4.297
X4.9709Y-2.897
X4.9709Y-2.997
X4.9709Y-4.197
X4.9709Y-4.297
X5.0709Y-2.897
X5.0709Y-2.997
X5.0709Y-4.197
X5.0709Y-4.297
X5.1709Y-2.897
X5.1709Y-2.997
X5.1709Y-4.197
X5.1709Y-4.297
X5.2709Y-2.897
X5.2709Y-2.997
X5.2709Y-4.197
X5.2709Y-4.297
X5.3709Y-2.897
X5.3709Y-2.997
X5.3709Y-4.197
X5.3709Y-4.297
X5.4709Y-2.897
X5.4709Y-2.997
X5.4709Y-4.197
X5.4709Y-4.297
X5.5709Y-2.897
X5.5709Y-2.997
X5.5709Y-4.197
X5.5709Y-4.297
X5.6709Y-2.897
X5.6709Y-2.997
X5.6709Y-4.197
X5.6709Y-4.297
X5.7709Y-2.897
X5.7709Y-2.997
X5.7709Y-4.197
X5.7709Y-4.297
X5.8709Y-2.897
X5.8709Y-2.997
X5.8709Y-4.197
X5.8709Y-4.297
X5.9709Y-2.897
X5.9709Y-2.997
X5.9709Y-4.197
X5.9709Y-4.297
X6.0709Y-2.897
X6.0709Y-2.997
X6.0709Y-4.197
X6.0709Y-4.297
X6.1709Y-2.897
X6.1709Y-2.997
X6.1709Y-4.197
X6.1709Y-4.297
X6.2709Y-2.897
X6.2709Y-2.997
X6.2709Y-4.197
X6.2709Y-4.297
X6.3709Y-2.897
X6.3709Y-2.997
X6.3709Y-3.097
X6.3709Y-3.197
X6.3709Y-3.297
X6.3709Y-3.597
X6.3709Y-3.697
X6.3709Y-3.797
X6.3709Y-4.197
X6.3709Y-4.297
X6.4709Y-2.897
X6.4709Y-2.997
X6.4709Y-3.097
X6.4709Y-3.197
X6.4709Y-3.297
X6.4709Y-3.597
X6.4709Y-3.697
X6.4709Y-3.797
X6.4709Y-4.197
X6.4709Y-4.297
T3
X6.67Y-3.5352
X6.67Y-3.6352
X6.67Y-3.8852
X6.67Y-3.9852
X6.6702Y-3.1852
X6.6702Y-3.2852
T4
X4.65Y-2.575
X4.65Y-2.675
X4.75Y-2.575
X4.75Y-2.675
X4.85Y-2.575
X4.85Y-2.675
X4.95Y-2.575
X4.95Y-2.675
X5.05Y-2.575
X5.05Y-2.675
X5.15Y-2.575
X5.15Y-2.675
X5.25Y-2.575
X5.25Y-2.675
X5.35Y-2.575
X5.35Y-2.675
X5.45Y-2.575
X5.45Y-2.675
X5.55Y-2.575
X5.55Y-2.675
X5.65Y-2.575
X5.65Y-2.675
X5.75Y-2.575
X5.75Y-2.675
X5.85Y-2.575
X5.85Y-2.675
X5.95Y-2.575
X5.95Y-2.675
X6.05Y-2.575
X6.05Y-2.675
X6.15Y-2.575
X6.15Y-2.675
X6.25Y-2.575
X6.25Y-2.675
X6.35Y-2.575
X6.35Y-2.675
X6.45Y-2.575
X6.45Y-2.675
X6.55Y-2.575
X6.55Y-2.675
T5
X5.291Y-4.0278
T6
X5.291Y-3.201
T0
M30
